<?xml version="1.0" standalone="no"?>
<!DOCTYPE svg PUBLIC "-//W3C//DTD SVG 1.1//EN" "http://www.w3.org/Graphics/SVG/1.1/DTD/svg11.dtd" >
<svg xmlns="http://www.w3.org/2000/svg" xmlns:xlink="http://www.w3.org/1999/xlink" version="1.1">
<metadata>
Created by FontForge 20170731 at Sun Apr  2 14:24:04 2017
 By Aleksey,,,
MARSNEV c2017
</metadata>
<defs>
<font id="LemonMilkbold" horiz-adv-x="1222" >
  <font-face 
    font-family="Lemon/Milk"
    font-weight="700"
    font-stretch="normal"
    units-per-em="2048"
    panose-1="2 11 8 3 5 3 2 2 2 4"
    ascent="1638"
    descent="-410"
    x-height="1612"
    cap-height="1612"
    bbox="-54 -650 2447 2276"
    underline-thickness="0"
    underline-position="0"
    unicode-range="U+0020-20AC"
  />
<missing-glyph horiz-adv-x="2048" 
d="M1471 1205q23 52 76 89t114 37q74 0 124 -52v189h-1717v-365l38 305l229 -376l328 383l-61 -498l269 472l167 -512q4 29 32 247l25 204h192q66 0 116 -33.5t68 -89.5zM-35 1571h1922v-1530h-1922v1530zM1680 1113q68 -26 105 -79v79h-105zM1657 1120l1 30q0 9 -2 11.5
t-8 2.5q-10 0 -18 -11.5t0 -17.5q11 -8 27 -15zM1607 963l-5 -25q-1 -10 10 -10q8 0 15 8t7 17q-14 5 -27 10zM1236 1089h32q18 0 32 23.5t0 39.5q-8 8 -32 8h-24q-5 -42 -8 -71zM173 764l210 -228l44 356l-123 -145l-91 151l-16 -134h-24zM1468 1072q-13 -37 -39 -68.5
t-60 -50.5l100 -190h-22l-350 -620h688v734q-24 -49 -76 -83t-109 -34q-76 0 -127 55.5t-41 132.5l4 31h138q-75 28 -106 93zM891 769q-6 17 -24 71h-122l-41 -71h187zM937 628l-3 -28h-198l-4 -31h148l-20 -169h-149l-4 -30h199l-20 -169h-369l69 563h-3
q-15 -120 -42 -340.5t-35 -277.5l-262 284l-28 -231h-148v-56h1024zM1267 767l-59 111l-14 -115h-120q10 -32 21.5 -68.5t24.5 -78t21 -67.5l120 218h6zM68 383l47 381h-47v-381z" />
    <glyph glyph-name=".notdef" horiz-adv-x="2048" 
d="M1471 1205q23 52 76 89t114 37q74 0 124 -52v189h-1717v-365l38 305l229 -376l328 383l-61 -498l269 472l167 -512q4 29 32 247l25 204h192q66 0 116 -33.5t68 -89.5zM-35 1571h1922v-1530h-1922v1530zM1680 1113q68 -26 105 -79v79h-105zM1657 1120l1 30q0 9 -2 11.5
t-8 2.5q-10 0 -18 -11.5t0 -17.5q11 -8 27 -15zM1607 963l-5 -25q-1 -10 10 -10q8 0 15 8t7 17q-14 5 -27 10zM1236 1089h32q18 0 32 23.5t0 39.5q-8 8 -32 8h-24q-5 -42 -8 -71zM173 764l210 -228l44 356l-123 -145l-91 151l-16 -134h-24zM1468 1072q-13 -37 -39 -68.5
t-60 -50.5l100 -190h-22l-350 -620h688v734q-24 -49 -76 -83t-109 -34q-76 0 -127 55.5t-41 132.5l4 31h138q-75 28 -106 93zM891 769q-6 17 -24 71h-122l-41 -71h187zM937 628l-3 -28h-198l-4 -31h148l-20 -169h-149l-4 -30h199l-20 -169h-369l69 563h-3
q-15 -120 -42 -340.5t-35 -277.5l-262 284l-28 -231h-148v-56h1024zM1267 767l-59 111l-14 -115h-120q10 -32 21.5 -68.5t24.5 -78t21 -67.5l120 218h6zM68 383l47 381h-47v-381z" />
    <glyph glyph-name=".null" horiz-adv-x="0" 
 />
    <glyph glyph-name="nonmarkingreturn" horiz-adv-x="682" 
 />
    <glyph glyph-name="space" unicode=" " horiz-adv-x="600" 
 />
    <glyph glyph-name="exclam" unicode="!" horiz-adv-x="684" 
d="M341.5 -86q-99.5 0 -170.5 71t-71 170t71.5 168.5t170.5 69.5t170.5 -71.5t71.5 -170t-71.5 -168t-171 -69.5zM116 1647h448l-55 -1195h-337l-1 34q-5 176 -14 363.5t-20.5 401t-18.5 359.5z" />
    <glyph glyph-name="quotedbl" unicode="&#x22;" horiz-adv-x="913" 
d="M30 1688h401l-48 -595h-306zM482 1688h401l-48 -595h-306z" />
    <glyph glyph-name="numbersign" unicode="#" horiz-adv-x="1393" 
d="M30 274l37 300h232l30 239h-230l40 300h231l61 461h301l-61 -461h161l61 461h301l-61 -461h230l-38 -300h-231l-32 -239h231l-39 -300h-230l-42 -309h-302l41 309h-160l-41 -309h-302l41 309h-229zM792 813h-160l-31 -239h160z" />
    <glyph glyph-name="dollar" unicode="$" horiz-adv-x="1272" 
d="M783 500q0 48 -44.5 79t-99.5 31h-9l-2 1q-244 3 -395 147q-153 148 -153 356q0 90 30.5 170.5t83 140.5t121.5 103t147 64v176h353v-176q79 -22 147 -67t119.5 -108t81 -145.5t29.5 -174.5v-35h-412v35q0 52 -43 90t-100 38q-55 0 -99.5 -32.5t-44.5 -78.5t44.5 -78.5
t99.5 -32.5q247 0 403 -148q152 -148 152 -357q0 -90 -30 -171.5t-81.5 -143t-119.5 -105t-146 -64.5v-169h-353v173q-80 22 -149 67.5t-120.5 109t-81 147t-29.5 176.5v35h413v-35q0 -53 43.5 -90t100.5 -37q36 0 68.5 13t54 38.5t21.5 57.5z" />
    <glyph glyph-name="percent" unicode="%" horiz-adv-x="1741" 
d="M80 0l1134 1613h322l-1132 -1613h-324zM825 380q0 105 60.5 193.5t158.5 137.5t208 49q109 0 203 -49.5t150 -137.5t56 -193q0 -157 -117 -269q-117 -111 -291 -111q-178 0 -303 111q-125 112 -125 269zM1396 379.5q0 62.5 -33.5 89.5t-110.5 27q-78 0 -111.5 -27
t-33.5 -89q0 -43 14.5 -68t46 -37t84.5 -12q77 0 110.5 27t33.5 89.5zM109 1271q0 96 51 175t135.5 122.5t183.5 43.5t188.5 -44t145.5 -123.5t56 -173.5q0 -139 -115 -241q-115 -100 -274 -100q-100 0 -185 43.5t-135.5 122.5t-50.5 175zM543 1352q-33 25 -63 26
q-31 -1 -65 -26q-29 -21 -28.5 -62.5t27.5 -63.5q29 -23 66 -23q27 0 50 16t34 39t6.5 49.5t-27.5 44.5z" />
    <glyph glyph-name="ampersand" unicode="&#x26;" horiz-adv-x="1581" 
d="M1080 109q-70 -70 -197 -115t-262 -45q-239 0 -406 162q-165 160 -165 391q3 152 78 249q81 103 151 166q-22 35 -42 83t-34.5 104t-15.5 102q0 96 35.5 168t97.5 134q60 59 161.5 107.5t197.5 48.5q72 0 140 -20.5t123 -57t100 -85t75 -106.5t44 -120l8 -35l-391 -82
l-7 33q-8 32 -33 53.5t-59 21.5q-43 0 -63.5 -15.5t-27.5 -51.5q0 -19 31 -79q13 -25 48 -88q23 -42 59.5 -90t62.5 -77t81.5 -87t74.5 -78q20 -22 38 -40q0 2 6 146l1 34l373 4l-1 -36q-4 -136 -15.5 -229.5t-42.5 -172.5l16 -10t19.5 -12t19.5 -11t22.5 -11.5t21 -9.5
t24 -10t22 -6.5t24 -4.5t22.5 -1l36 1l-1 -371h-35q-58 0 -113.5 11t-107.5 33.5t-85.5 40.5t-81.5 46q-14 9 -27 18zM828 325l-7 101l42 63v-193zM511 648q-3 -3 -14.5 -12t-15 -12t-12.5 -11.5t-12.5 -13.5t-10 -14t-9 -17t-5.5 -19.5t-4 -24t0 -26.5q0 -34 18.5 -69.5
t41.5 -56.5q37 -36 134 -36q23 0 75.5 13.5t74.5 24.5q-36 32 -102 92q-94 85 -159 182z" />
    <glyph glyph-name="quotesingle" unicode="'" horiz-adv-x="481" 
d="M40 1688h401l-48 -595h-306z" />
    <glyph glyph-name="parenleft" unicode="(" horiz-adv-x="742" 
d="M692 -10l-72 -339l-34 7q-229 45 -386 380q-150 326 -150 768t150 769q156 335 386 380l34 7l72 -339h-43q-35 0 -74.5 -54t-74.5 -171q-73 -246 -73 -592q0 -345 73 -592q35 -117 74.5 -170.5t74.5 -53.5h43z" />
    <glyph glyph-name="parenright" unicode=")" horiz-adv-x="741" 
d="M93 -10q34 0 73 54t76 170q74 245 74 592q0 348 -74 592q-37 117 -76.5 171t-72.5 54h-43l72 339l34 -7q230 -46 385 -380q150 -327 150 -769t-150 -768q-156 -334 -385 -380l-34 -7l-72 339h43z" />
    <glyph glyph-name="asterisk" unicode="*" horiz-adv-x="868" 
d="M289 1728h290l-34 -195l137 119l156 -230l-247 -103l247 -104l-156 -229l-137 119l34 -195h-290l34 195l-137 -119l-156 229l248 104l-248 103l156 230l137 -119z" />
    <glyph glyph-name="plus" unicode="+" horiz-adv-x="1031" 
d="M35 509v353h304v405h353v-405h304v-353h-304v-405h-353v405h-304z" />
    <glyph glyph-name="comma" unicode="," horiz-adv-x="633" 
d="M40 154q0 91 56 164.5t137 98.5l19 8l62 5q72 5 137 -34t103.5 -106t38.5 -141q0 -106 -34 -185.5t-97 -150.5q-65 -72 -168 -103q-42 -13 -111 0q-4 1 -15.5 3t-16 3l-13.5 3t-14 4.5l-12 6t-12 8t-9 11.5q-11 16 -10.5 32t7 27t22 23.5t25.5 18t26 14.5q3 2 5 3
q40 21 40 49q-72 30 -119 92t-47 146z" />
    <glyph glyph-name="hyphen" unicode="-" horiz-adv-x="930" 
d="M35 509v353h860v-353h-860z" />
    <glyph glyph-name="period" unicode="." horiz-adv-x="612" 
d="M306 -110q-72 0 -133.5 35.5t-97 96.5t-35.5 133q0 109 78.5 187.5t187.5 78.5q108 0 187 -79t79 -187q0 -109 -78.5 -187t-187.5 -78z" />
    <glyph glyph-name="slash" unicode="/" horiz-adv-x="1075" 
d="M717 1853h358l-718 -2093h-357z" />
    <glyph glyph-name="zero" unicode="0" horiz-adv-x="1496" 
d="M50 807q0 163 48 312.5t126 253.5q94 123 226.5 185.5t297.5 62.5q110 0 206 -28t176 -83t142 -137q174 -231 174 -566q0 -337 -174 -568q-94 -122 -226.5 -184.5t-297.5 -62.5t-297.5 62.5t-226.5 184.5q-31 40 -57 88.5t-47.5 104.5t-37 116t-24 126.5t-8.5 132.5z
M1038 807q0 205 -106 335q-73 83 -185 83t-184 -83q-108 -132 -108 -335q0 -206 108 -334q72 -84 184 -84q113 0 185 84q106 127 106 334z" />
    <glyph glyph-name="one" unicode="1" horiz-adv-x="707" 
d="M50 1085v394l557 151v-1630h-394v1131z" />
    <glyph glyph-name="two" unicode="2" horiz-adv-x="1397" 
d="M714 1227q-96 0 -166 -62.5t-70 -152.5v-35h-410v35q0 252 178 431q189 178 469 178q279 0 465 -169q179 -169 179 -407q0 -145 -82.5 -284t-203.5 -256q-103 -94 -125 -112h404v-393h-1302l72 228q147 97 300 214.5t265 222.5q119 112 193 211q70 92 70 148
q0 87 -71 145t-165 58z" />
    <glyph glyph-name="three" unicode="3" horiz-adv-x="1304" 
d="M651 400q78 0 137.5 42t59.5 109q0 94 -99 169q-102 77 -298 85l-60 2l111 182q147 24 203 71q40 34 50 73v24q0 37 -32 62.5t-73 25.5q-39 0 -67.5 -21.5t-35.5 -52.5l-7 -36l-415 84l7 35q37 167 174 279q152 110 344 110q225 0 384 -138q144 -141 144 -336
q0 -142 -77 -257q160 -156 160 -373q0 -225 -171 -383q-173 -156 -440 -156q-219 0 -386 117q-159 121 -206 309l-8 33l402 99l9 -35q12 -51 67.5 -87t122.5 -36z" />
    <glyph glyph-name="four" unicode="4" horiz-adv-x="1556" 
d="M50 311l528 1308l456 -2l-358 -913h291l-24 604h417v-604h162v-393h-162v-311h-393v311h-917z" />
    <glyph glyph-name="five" unicode="5" horiz-adv-x="1369" 
d="M671 393q60 0 114 22.5t89 66.5t35 99q0 77 -70 133q-28 23 -43.5 33.5t-43.5 18.5t-65 8q-118 0 -170 -19q-57 -21 -157 -100l-19 -16l-226 115l87 858h998v-392h-642l-11 -73q53 11 145 11q259 0 454 -170q186 -171 186 -407q0 -242 -184 -411q-192 -170 -477 -170
q-208 0 -378 101q-157 100 -227 260l-16 35l398 124l16 -23q71 -104 207 -104z" />
    <glyph glyph-name="six" unicode="6" horiz-adv-x="1374" 
d="M919 594q0 83 -64 143t-150 65h-9h-8q-93 0 -160.5 -61t-67.5 -148q0 -57 31.5 -105t84 -75t113.5 -27q92 0 161 61t69 147zM154 900l457 712l491 -2l-309 -473q223 -33 368 -176q163 -167 163 -393q0 -240 -177 -407q-184 -167 -461 -167q-279 0 -460 167
q-176 167 -176 407q0 144 74 277q29 54 30 55z" />
    <glyph glyph-name="seven" unicode="7" horiz-adv-x="1332" 
d="M40 1226v386h1255l-562 -1618h-455l446 1232h-684z" />
    <glyph glyph-name="eight" unicode="8" horiz-adv-x="1293" 
d="M783 1073l12 14h20zM552 1156q0 -31 31 -50t67 -19h13q32 3 57.5 21.5t25.5 47.5t-31 48.5t-66 19.5q-36 0 -66.5 -19.5t-30.5 -48.5zM1163 1156q0 -135 -76 -248q156 -155 156 -373q0 -223 -164 -381q-168 -156 -432 -156t-432 156q-165 157 -165 381q0 218 158 374
q-76 112 -76 247q0 190 141 325q152 134 375 134q221 0 375 -134q140 -135 140 -325zM646 388q75 0 132 49t57 120q0 67 -57 120q-50 46 -115 50l-3 -2h-16q-75 0 -130.5 -50t-55.5 -120t55.5 -118.5t132.5 -48.5z" />
    <glyph glyph-name="nine" unicode="9" horiz-adv-x="1374" 
d="M457 1019q0 -57 32 -105t85 -75.5t112 -27.5q93 0 161 60.5t68 147.5t-68.5 148t-160.5 61q-93 0 -161 -61t-68 -148zM1324 1043q0 -43 -8 -88t-22.5 -87t-32 -80t-39.5 -73l-458 -714l-494 -1l310 474q-225 30 -368 176q-162 166 -162 393q0 237 176 408
q181 169 460 169q277 0 461 -169q177 -170 177 -408z" />
    <glyph glyph-name="colon" unicode=":" horiz-adv-x="612" 
d="M306 840q-72 0 -133.5 35.5t-97 96.5t-35.5 133q0 109 78.5 187.5t187.5 78.5q108 0 187 -79t79 -187q0 -71 -36 -132.5t-97.5 -97t-132.5 -35.5zM306 -110q-72 0 -133.5 35.5t-97 96.5t-35.5 133q0 109 78.5 187.5t187.5 78.5q108 0 187 -79t79 -187q0 -109 -78.5 -187
t-187.5 -78zM45 1120z" />
    <glyph glyph-name="semicolon" unicode=";" horiz-adv-x="636" 
d="M326 840q-110 0 -188 78t-78 187t78.5 187.5t187.5 78.5q108 0 187 -79t79 -187q0 -71 -36 -132.5t-97.5 -97t-132.5 -35.5zM40 174q0 91 56 164.5t138 98.5l19 8l61 5q71 5 133.5 -35t100 -105.5t46.5 -140.5q6 -54 -2.5 -102.5t-30 -91t-43.5 -73.5t-56 -69
q-63 -72 -168 -103q-42 -13 -110 0q-5 1 -16 3t-16 3t-14 3t-14 4.5t-11.5 6t-11.5 8t-10 11.5q-11 16 -10.5 32t7 27t22.5 23.5t25.5 18t25.5 14.5l6 3q39 21 39 49q-72 30 -119 92t-47 146z" />
    <glyph glyph-name="less" unicode="&#x3c;" horiz-adv-x="1264" 
d="M1234 1361v-398l-543 -313l543 -312v-399l-1234 711z" />
    <glyph glyph-name="equal" unicode="=" horiz-adv-x="970" 
d="M45 266v353h880v-353h-880zM45 751v354h880v-354h-880z" />
    <glyph glyph-name="greater" unicode="&#x3e;" horiz-adv-x="1264" 
d="M30 1361l1234 -711l-1234 -711v399l543 312l-543 313v398z" />
    <glyph glyph-name="question" unicode="?" horiz-adv-x="1202" 
d="M591.5 -86q-99.5 0 -171 71t-71.5 170t71.5 168.5t170.5 69.5t170.5 -71.5t71.5 -170t-71 -168t-170.5 -69.5zM599 1274q-56 0 -96.5 -41.5t-40.5 -96.5v-35h-412v35q-1 229 161 390q163 161 389 161q228 0 389.5 -161.5t162.5 -388.5q0 -53 -13 -100t-39.5 -87.5
t-50 -67.5t-59.5 -62q-87 -88 -166 -171q-66 -71 -38 -204l9 -12l-424 -1v35q0 166 57 267q59 107 156 199q49 47 104 113q48 58 49 90q-1 36 -19.5 67.5t-50.5 51t-68 19.5z" />
    <glyph glyph-name="at" unicode="@" horiz-adv-x="2208" 
d="M1453 164l132 -343l-29 -14q-48 -22 -97.5 -35.5t-112 -19t-108.5 -7t-132 -1.5q-456 0 -762 300q-304 302 -304 758q0 453 303 759q311 309 762 309q467 0 766 -295q297 -299 297 -759q0 -263 -154 -476q-159 -218 -458 -197q-54 4 -103 21zM1788 819q0 194 -79.5 343
t-225 233.5t-338.5 93.5h-39q-298 0 -492.5 -193t-194.5 -493t196 -491q192 -193 491 -193q228 0 311 37l26 12q-140 54 -204 196q-30 -20 -79.5 -31.5t-99.5 -11.5q-178 0 -315 139q-139 137 -139 334q0 176 125 324q127 150 314 150q29 0 76.5 -14.5t77.5 -31.5v47h343
l2 -651q0 -76 29 -99t48 -17q87 23 125 126q42 113 42 191zM1200 792q0 58 -32.5 89t-86.5 31h-8l-2 1q-45 -3 -77.5 -38t-32.5 -81q0 -51 34 -86t85 -35q117 0 120 119z" />
    <glyph glyph-name="A" unicode="A" horiz-adv-x="1729" 
d="M865 784l-105 -218h208zM467 0h-427l777 1610h94l778 -1610h-428l-119 245h-556z" />
    <glyph glyph-name="B" unicode="B" horiz-adv-x="1382" 
d="M1081 956q118 -55 189.5 -176t71.5 -260q0 -215 -157 -366q-53 -51 -120 -85.5t-144 -51.5t-163 -17h-658v1612h485q234 0 400 -138q153 -129 153 -318q0 -48 -17 -104t-40 -96zM758 386q72 0 124 45t52 112q0 65 -52 112q-55 47 -127 51q-47 2 -262 1v-321h265z
M702 1123q0 29 -16.5 53t-43 37.5t-57.5 13.5h-92v-223q35 2 83 6q52 5 89 35.5t37 77.5z" />
    <glyph glyph-name="C" unicode="C" horiz-adv-x="1632" 
d="M983 1625l-1 -5q120 -6 231 -40.5t196 -86.5t157 -121l25 -25l-283 -280l-26 24q-146 134 -346 134q-202 0 -343 -123q-144 -126 -144 -298q0 -174 143 -297q142 -123 344 -123q203 0 346 134l27 24l283 -280l-25 -25q-117 -116 -276 -182q-165 -66 -356 -66
q-377 1 -644 238q-251 240 -251 578q0 337 251 579q269 241 644 241h48z" />
    <glyph glyph-name="D" unicode="D" horiz-adv-x="1584" 
d="M100 1611h499v1h35q139 0 267.5 -30.5t231 -82.5t185.5 -124q226 -218 226 -570.5t-226 -568.5q-300 -236 -754 -236h-464v1611zM1134 807q0 79 -25 146t-70.5 116t-107.5 83.5t-137.5 51.5t-160.5 17h-104l4 -828h43q242 0 386 105.5t172 308.5z" />
    <glyph glyph-name="E" unicode="E" horiz-adv-x="1252" 
d="M100 -2v1618h1112v-393h-699v-220h537v-393h-537v-220h699v-392h-1112z" />
    <glyph glyph-name="F" unicode="F" horiz-adv-x="1252" 
d="M100 -2v1618h1112v-393h-699v-220h537v-393h-537v-612h-413z" />
    <glyph glyph-name="G" unicode="G" horiz-adv-x="1853" 
d="M953 1625l2 -3q183 -5 339 -73t272 -176l25 -25l-295 -280l-26 24q-145 135 -340 135q-199 0 -340 -124t-141 -298t141 -298q140 -123 340 -123q128 0 236 56t169 143h-461v357h933l3 -31q32 -415 -246 -681q-266 -240 -637 -240q-375 0 -637 239q-250 238 -250 578
q0 337 250 579q263 241 637 241h26z" />
    <glyph glyph-name="H" unicode="H" horiz-adv-x="1525" 
d="M100 0v1612h393v-610h539v610h393v-1612h-393v611h-539v-611h-393z" />
    <glyph glyph-name="I" unicode="I" horiz-adv-x="594" 
d="M494 0h-394v1612h394v-1612z" />
    <glyph glyph-name="J" unicode="J" horiz-adv-x="1297" 
d="M467 377q61 0 119 21t102 57t71 87.5t27 108.5v307l-7 654l412 -1l6 -657v-317q0 -274 -201 -464q-214 -186 -527 -190h-12q-234 2 -401 118l-26 19l201 348l32 -27q81 -64 196 -64h8z" />
    <glyph glyph-name="K" unicode="K" horiz-adv-x="1499" 
d="M100 0v1612h393v-618l428 618h455l-513 -817l596 -795h-479l-487 599v-599h-393z" />
    <glyph glyph-name="L" unicode="L" horiz-adv-x="1252" 
d="M100 0v1612h394v-1220h718v-392h-1112z" />
    <glyph glyph-name="M" unicode="M" horiz-adv-x="1919" 
d="M100 1616h81l779 -1025l778 1025h81v-1616h-394v595l-465 -594l-466 594v-595h-394v1616z" />
    <glyph glyph-name="N" unicode="N" horiz-adv-x="1636" 
d="M100 1616h85l944 -848v848h407v-1616h-89l-941 846v-846h-406v1616z" />
    <glyph glyph-name="O" unicode="O" horiz-adv-x="1797" 
d="M290 1384q136 123 281.5 182t326.5 59t326.5 -59t280.5 -182q252 -241 252 -579q0 -339 -252 -578q-134 -121 -279.5 -179.5t-327.5 -58.5t-327.5 58.5t-279.5 179.5q-251 240 -251 578q0 337 250 579zM1208 1105q-50 43 -94 69t-97.5 40t-118.5 14q-98 0 -167.5 -29
t-143.5 -94q-141 -126 -141 -298q0 -174 141 -297q74 -65 144 -94t167 -29q65 0 118.5 14t97.5 39.5t94 69.5q142 122 142 297q0 173 -142 298z" />
    <glyph glyph-name="P" unicode="P" horiz-adv-x="1413" 
d="M494 0h-394v1612h636q277 0 460 -170q177 -171 177 -412q0 -244 -178 -411q-186 -170 -468 -170h-233v-449zM964 1029.5q0 80.5 -69.5 136t-158.5 55.5h-227v-381l227 -1q90 0 159 55t69 135.5z" />
    <glyph glyph-name="Q" unicode="Q" horiz-adv-x="1912" 
d="M291 1384q261 241 635 241q372 0 637 -241q254 -242 254 -580q0 -273 -165 -484q79 -19 184 -25l36 -3l-32 -370l-34 2q-319 21 -518 134q-163 -68 -362 -68q-376 0 -635 238q-251 238 -251 577q0 337 251 579zM714 777l37 -3q71 -5 132.5 -19.5t110 -34t99 -50.5t90 -62
t90.5 -76q16 -13 37 -34q97 118 97 275q0 188 -141 321q-143 134 -340 134q-200 0 -339 -134q-141 -133 -141 -321q0 -190 141 -322q133 -128 322 -134q-45 33 -85.5 49t-97.5 20l-37 2z" />
    <glyph glyph-name="R" unicode="R" horiz-adv-x="1453" 
d="M495 0h-394l-1 1612h589q145 0 281 -41q118 -41 208 -126q41 -40 69 -75t51.5 -80t34.5 -99t11 -120v-41q0 -167 -109 -313q-38 -52 -75.5 -82.5t-93.5 -56.5l387 -578h-479l-479 630v-630zM726 845q83 0 145.5 55.5t62.5 136.5q0 74 -63 130q-20 17 -55 29.5t-74 18.5
t-76 6h-172v-375h146v-1h86z" />
    <glyph glyph-name="S" unicode="S" horiz-adv-x="1237" 
d="M442 552v-42q0 -44 44.5 -82t103.5 -46h21q62 0 116.5 39t54.5 85q0 22 -10 40t-29 32t-41 24.5t-53.5 20t-58.5 16t-64 16t-62 16.5q-85 25 -158.5 67.5t-130.5 99.5t-90 131t-33 157q0 102 42.5 193.5t116 158.5t178.5 106t224 39q108 0 205 -35t169 -95t119.5 -143.5
t60.5 -178.5l4 -31l-414 -84q0 79 -34.5 125t-107.5 46q-59 0 -101.5 -36.5t-42.5 -86.5q0 -21 9 -39.5t22 -32t37.5 -27t43 -22t53 -18.5t54 -15.5t56.5 -14.5q5 -1 7 -1.5l6 -1.5t7 -2t6 -1q88 -23 163.5 -62.5t134.5 -95t93 -130t34 -158.5q0 -82 -29.5 -158
t-83.5 -137.5t-126 -107t-160.5 -70.5t-183.5 -25q-145 0 -271 58.5t-207.5 162t-100.5 231.5l-5 31z" />
    <glyph glyph-name="T" unicode="T" horiz-adv-x="1338" 
d="M40 1221v391h1258v-391h-411l15 -1221h-445l-5 1221h-412z" />
    <glyph glyph-name="U" unicode="U" horiz-adv-x="1644" 
d="M822 383q82 0 156.5 35t122 98.5t47.5 139.5v956h396v-969q0 -273 -201 -466q-203 -192 -520 -192q-320 0 -522 192q-201 193 -201 466v969h396v-956q0 -111 96 -193q96 -80 230 -80z" />
    <glyph glyph-name="V" unicode="V" horiz-adv-x="1714" 
d="M1250 1612h424l-777 -1612h-84l-773 1612h419l395 -830z" />
    <glyph glyph-name="W" unicode="W" horiz-adv-x="2144" 
d="M715 0l-675 1612h425l290 -702l299 718h37l298 -718l290 702h425l-675 -1612h-80l-280 701l-274 -701h-80z" />
    <glyph glyph-name="X" unicode="X" horiz-adv-x="1566" 
d="M524 807l-484 805h453l290 -444l290 444h453l-486 -805l486 -807h-453l-290 446l-290 -446l-453 1z" />
    <glyph glyph-name="Y" unicode="Y" horiz-adv-x="1589" 
d="M573 687l-533 925h446l308 -519l308 519h447l-534 -925v-687h-442v687z" />
    <glyph glyph-name="Z" unicode="Z" horiz-adv-x="1395" 
d="M60 1221v391h1295l-655 -1236h634v-376h-1294l654 1221h-634z" />
    <glyph glyph-name="bracketleft" unicode="[" horiz-adv-x="875" 
d="M65 806q0 60 19 117t53.5 103t80.5 81t103 54t117 19q100 0 186 -50.5t136 -137t50 -186.5q0 -75 -29.5 -144t-79.5 -119t-119 -80t-144 -30q-101 0 -187 50t-136 136t-50 187z" />
    <glyph glyph-name="backslash" unicode="\" horiz-adv-x="1034" 
d="M317 1853l717 -2093h-317l-717 2093h317z" />
    <glyph glyph-name="bracketright" unicode="]" horiz-adv-x="875" 
d="M65 806q0 60 19 117t53.5 103t80.5 81t103 54t117 19q100 0 186 -50.5t136 -137t50 -186.5q0 -75 -29.5 -144t-79.5 -119t-119 -80t-144 -30q-101 0 -187 50t-136 136t-50 187z" />
    <glyph glyph-name="asciicircum" unicode="^" horiz-adv-x="1030" 
d="M0 813l514 881l516 -881h-362l-154 261l-153 -261h-361z" />
    <glyph glyph-name="underscore" unicode="_" horiz-adv-x="1279" 
d="M0 -145v291h1279v-291h-1279z" />
    <glyph glyph-name="grave" unicode="`" horiz-adv-x="635" 
d="M30 1611l343 171l232 -632l-225 -108z" />
    <glyph glyph-name="a" unicode="a" horiz-adv-x="1729" 
d="M865 784l-105 -218h208zM467 0h-427l777 1610h94l778 -1610h-428l-119 245h-556z" />
    <glyph glyph-name="b" unicode="b" horiz-adv-x="1382" 
d="M1081 956q118 -55 189.5 -176t71.5 -260q0 -215 -157 -366q-53 -51 -120 -85.5t-144 -51.5t-163 -17h-658v1612h485q234 0 400 -138q153 -129 153 -318q0 -48 -17 -104t-40 -96zM758 386q72 0 124 45t52 112q0 65 -52 112q-55 47 -127 51q-47 2 -262 1v-321h265z
M702 1123q0 29 -16.5 53t-43 37.5t-57.5 13.5h-92v-223q35 2 83 6q52 5 89 35.5t37 77.5z" />
    <glyph glyph-name="c" unicode="c" horiz-adv-x="1632" 
d="M983 1625l-1 -5q120 -6 231 -40.5t196 -86.5t157 -121l25 -25l-283 -280l-26 24q-146 134 -346 134q-202 0 -343 -123q-144 -126 -144 -298q0 -174 143 -297q142 -123 344 -123q203 0 346 134l27 24l283 -280l-25 -25q-117 -116 -276 -182q-165 -66 -356 -66
q-377 1 -644 238q-251 240 -251 578q0 337 251 579q269 241 644 241h48z" />
    <glyph glyph-name="d" unicode="d" horiz-adv-x="1584" 
d="M100 1611h499v1h35q139 0 267.5 -30.5t231 -82.5t185.5 -124q226 -218 226 -570.5t-226 -568.5q-300 -236 -754 -236h-464v1611zM1134 807q0 79 -25 146t-70.5 116t-107.5 83.5t-137.5 51.5t-160.5 17h-104l4 -828h43q242 0 386 105.5t172 308.5z" />
    <glyph glyph-name="e" unicode="e" horiz-adv-x="1252" 
d="M100 -2v1618h1112v-393h-699v-220h537v-393h-537v-220h699v-392h-1112z" />
    <glyph glyph-name="f" unicode="f" horiz-adv-x="1252" 
d="M100 -2v1618h1112v-393h-699v-220h537v-393h-537v-612h-413z" />
    <glyph glyph-name="g" unicode="g" horiz-adv-x="1853" 
d="M953 1625l2 -3q183 -5 339 -73t272 -176l25 -25l-295 -280l-26 24q-145 135 -340 135q-199 0 -340 -124t-141 -298t141 -298q140 -123 340 -123q128 0 236 56t169 143h-461v357h933l3 -31q32 -415 -246 -681q-266 -240 -637 -240q-375 0 -637 239q-250 238 -250 578
q0 337 250 579q263 241 637 241h26z" />
    <glyph glyph-name="h" unicode="h" horiz-adv-x="1525" 
d="M100 0v1612h393v-610h539v610h393v-1612h-393v611h-539v-611h-393z" />
    <glyph glyph-name="i" unicode="i" horiz-adv-x="594" 
d="M494 0h-394v1612h394v-1612z" />
    <glyph glyph-name="j" unicode="j" horiz-adv-x="1297" 
d="M467 377q61 0 119 21t102 57t71 87.5t27 108.5v307l-7 654l412 -1l6 -657v-317q0 -274 -201 -464q-214 -186 -527 -190h-12q-234 2 -401 118l-26 19l201 348l32 -27q81 -64 196 -64h8z" />
    <glyph glyph-name="k" unicode="k" horiz-adv-x="1499" 
d="M100 0v1612h393v-618l428 618h455l-513 -817l596 -795h-479l-487 599v-599h-393z" />
    <glyph glyph-name="l" unicode="l" horiz-adv-x="1252" 
d="M100 0v1612h394v-1220h718v-392h-1112z" />
    <glyph glyph-name="m" unicode="m" horiz-adv-x="1919" 
d="M100 1616h81l779 -1025l778 1025h81v-1616h-394v595l-465 -594l-466 594v-595h-394v1616z" />
    <glyph glyph-name="n" unicode="n" horiz-adv-x="1636" 
d="M100 1616h85l944 -848v848h407v-1616h-89l-941 846v-846h-406v1616z" />
    <glyph glyph-name="o" unicode="o" horiz-adv-x="1797" 
d="M290 1384q136 123 281.5 182t326.5 59t326.5 -59t280.5 -182q252 -241 252 -579q0 -339 -252 -578q-134 -121 -279.5 -179.5t-327.5 -58.5t-327.5 58.5t-279.5 179.5q-251 240 -251 578q0 337 250 579zM1208 1105q-50 43 -94 69t-97.5 40t-118.5 14q-98 0 -167.5 -29
t-143.5 -94q-141 -126 -141 -298q0 -174 141 -297q74 -65 144 -94t167 -29q65 0 118.5 14t97.5 39.5t94 69.5q142 122 142 297q0 173 -142 298z" />
    <glyph glyph-name="p" unicode="p" horiz-adv-x="1413" 
d="M494 0h-394v1612h636q277 0 460 -170q177 -171 177 -412q0 -244 -178 -411q-186 -170 -468 -170h-233v-449zM964 1029.5q0 80.5 -69.5 136t-158.5 55.5h-227v-381l227 -1q90 0 159 55t69 135.5z" />
    <glyph glyph-name="q" unicode="q" horiz-adv-x="1912" 
d="M291 1384q261 241 635 241q372 0 637 -241q254 -242 254 -580q0 -273 -165 -484q79 -19 184 -25l36 -3l-32 -370l-34 2q-319 21 -518 134q-163 -68 -362 -68q-376 0 -635 238q-251 238 -251 577q0 337 251 579zM714 777l37 -3q71 -5 132.5 -19.5t110 -34t99 -50.5t90 -62
t90.5 -76q16 -13 37 -34q97 118 97 275q0 188 -141 321q-143 134 -340 134q-200 0 -339 -134q-141 -133 -141 -321q0 -190 141 -322q133 -128 322 -134q-45 33 -85.5 49t-97.5 20l-37 2z" />
    <glyph glyph-name="r" unicode="r" horiz-adv-x="1453" 
d="M495 0h-394l-1 1612h589q145 0 281 -41q118 -41 208 -126q41 -40 69 -75t51.5 -80t34.5 -99t11 -120v-41q0 -167 -109 -313q-38 -52 -75.5 -82.5t-93.5 -56.5l387 -578h-479l-479 630v-630zM726 845q83 0 145.5 55.5t62.5 136.5q0 74 -63 130q-20 17 -55 29.5t-74 18.5
t-76 6h-172v-375h146v-1h86z" />
    <glyph glyph-name="s" unicode="s" horiz-adv-x="1237" 
d="M442 552v-42q0 -44 44.5 -82t103.5 -46h21q62 0 116.5 39t54.5 85q0 22 -10 40t-29 32t-41 24.5t-53.5 20t-58.5 16t-64 16t-62 16.5q-85 25 -158.5 67.5t-130.5 99.5t-90 131t-33 157q0 102 42.5 193.5t116 158.5t178.5 106t224 39q108 0 205 -35t169 -95t119.5 -143.5
t60.5 -178.5l4 -31l-414 -84q0 79 -34.5 125t-107.5 46q-59 0 -101.5 -36.5t-42.5 -86.5q0 -21 9 -39.5t22 -32t37.5 -27t43 -22t53 -18.5t54 -15.5t56.5 -14.5q5 -1 7 -1.5l6 -1.5t7 -2t6 -1q88 -23 163.5 -62.5t134.5 -95t93 -130t34 -158.5q0 -82 -29.5 -158
t-83.5 -137.5t-126 -107t-160.5 -70.5t-183.5 -25q-145 0 -271 58.5t-207.5 162t-100.5 231.5l-5 31z" />
    <glyph glyph-name="t" unicode="t" horiz-adv-x="1338" 
d="M40 1221v391h1258v-391h-411l15 -1221h-445l-5 1221h-412z" />
    <glyph glyph-name="u" unicode="u" horiz-adv-x="1644" 
d="M822 383q82 0 156.5 35t122 98.5t47.5 139.5v956h396v-969q0 -273 -201 -466q-203 -192 -520 -192q-320 0 -522 192q-201 193 -201 466v969h396v-956q0 -111 96 -193q96 -80 230 -80z" />
    <glyph glyph-name="v" unicode="v" horiz-adv-x="1714" 
d="M1250 1612h424l-777 -1612h-84l-773 1612h419l395 -830z" />
    <glyph glyph-name="w" unicode="w" horiz-adv-x="2144" 
d="M715 0l-675 1612h425l290 -702l299 718h37l298 -718l290 702h425l-675 -1612h-80l-280 701l-274 -701h-80z" />
    <glyph glyph-name="x" unicode="x" horiz-adv-x="1566" 
d="M524 807l-484 805h453l290 -444l290 444h453l-486 -805l486 -807h-453l-290 446l-290 -446l-453 1z" />
    <glyph glyph-name="y" unicode="y" horiz-adv-x="1589" 
d="M573 687l-533 925h446l308 -519l308 519h447l-534 -925v-687h-442v687z" />
    <glyph glyph-name="z" unicode="z" horiz-adv-x="1395" 
d="M60 1221v391h1295l-655 -1236h634v-376h-1294l654 1221h-634z" />
    <glyph glyph-name="braceleft" unicode="{" horiz-adv-x="1003" 
d="M65 806q0 88 35 169t93.5 140t139 94t168.5 35q180 0 308.5 -128.5t128.5 -310t-128.5 -309t-307.5 -127.5q-88 0 -169 35t-139.5 93.5t-93.5 139.5t-35 169zM632 805q0 54 -38.5 93t-91.5 39q-36 0 -66 -18t-47.5 -48t-17.5 -66q0 -54 38.5 -92.5t92.5 -38.5t92 38.5
t38 92.5z" />
    <glyph glyph-name="bar" unicode="|" horiz-adv-x="593" 
d="M165 1853h263v-2093h-263v2093z" />
    <glyph glyph-name="braceright" unicode="}" horiz-adv-x="1003" 
d="M65 806q0 71 22 137.5t62.5 120.5t94.5 94.5t120.5 63t136.5 22.5q180 0 308.5 -128.5t128.5 -310t-128.5 -309t-307.5 -127.5q-88 0 -169 35t-139.5 93.5t-93.5 139.5t-35 169zM632 805q0 35 -17.5 65.5t-47.5 48.5t-65 18q-36 0 -66 -18t-47.5 -48t-17.5 -66
q0 -54 38.5 -92.5t92.5 -38.5t92 38.5t38 92.5z" />
    <glyph glyph-name="asciitilde" unicode="~" horiz-adv-x="1252" 
d="M1218 724l-6 -45q-6 -5 -16.5 -14t-42 -32t-60 -39.5t-63 -29t-60.5 -8.5q-113 15 -357 103q-120 42 -202.5 56.5t-115.5 3.5q-79 -27 -197 -148l-68 -58l1 367q124 135 235 170q63 20 162.5 -2t247.5 -85q82 -35 150 -55.5t106 -23.5t60 3q77 31 168 131l62 69z" />
    <glyph glyph-name="exclamdown" unicode="&#xa1;" horiz-adv-x="594" 
d="M297 978q-100 0 -171 69t-71 168t71.5 170.5t170.5 71.5t170.5 -69.5t71.5 -167.5q0 -100 -71.5 -171t-170.5 -71zM73 -239q5 102 25.5 496t27.5 628l1 34h337l55 -1195h-448z" />
    <glyph glyph-name="cent" unicode="&#xa2;" horiz-adv-x="1375" 
d="M399 803q0 -104 50.5 -192.5t138.5 -139.5t192 -51q160 0 272 113l25 25l248 -248q-5 -4 -13 -12.5t-12 -12.5q-170 -169 -400 -206v-321h-281v329q-200 43 -354 198q-215 213 -215 519q0 302 215 516q154 155 354 199v336l281 1v-330q227 -37 399 -204l26 -25l-248 -246
l-24 24q-116 113 -273 113q-159 0 -270 -112q-111 -114 -111 -273z" />
    <glyph glyph-name="sterling" unicode="&#xa3;" horiz-adv-x="1238" 
d="M836 1261q-78 0 -144.5 -40t-104.5 -106.5t-38 -142.5v-80h338v-251h-338v-236h-2v-49h641v-391h-1116v391h84v285h-106v251h106l-1 81q0 281 200 482q197 195 476 199h12q107 -1 156 -18q44 -15 143 -51l39 -14l-201 -347l-29 15q-42 20 -109 22h-6z" />
    <glyph glyph-name="currency" unicode="&#xa4;" horiz-adv-x="1239" 
d="M714 899q-38 37 -92 38t-92 -36.5t-39 -92t37 -92.5q38 -39 92 -40t93 38q38 38 38.5 91.5t-37.5 93.5zM408 1188q99 56 215.5 55t214.5 -56l186 182l165 -165l-184 -182q56 -100 55 -219t-58 -216l182 -185l-165 -163l-184 185q-101 -57 -219 -55.5t-215 59.5l-187 -182
l-163 165l187 184q-55 100 -53 216t58 213l-183 186l166 165z" />
    <glyph glyph-name="yen" unicode="&#xa5;" horiz-adv-x="1507" 
d="M50 1647h446l257 -473l257 473h447l-411 -754h374v-269h-471v-58h471v-249h-471v-352h-392v352h-470v249h470v58h-470v269h373z" />
    <glyph glyph-name="brokenbar" unicode="&#xa6;" horiz-adv-x="593" 
d="M165 1853h263v-934h-263v934zM428 679v-919h-263v919h263z" />
    <glyph glyph-name="section" unicode="&#xa7;" horiz-adv-x="1131" 
d="M442 811q8 -55 35 -79.5t83 -25.5q57 -1 87 21.5t42 74.5q-8 53 -35.5 77t-84 26.5t-85.5 -19.5t-42 -75zM931 463q27 -25 46 -44.5t40.5 -48t34.5 -56.5t21.5 -65.5t8.5 -79.5q0 -214 -152 -365q-152 -152 -366 -152q-216 0 -366 152q-152 153 -152 365v35h391v-35
q0 -46 30 -81t72 -43h23q42 0 75.5 25.5t52.5 75.5q14 31 1.5 53t-61.5 40q-62 22 -97.5 35t-100.5 36q-194 65 -315 232q-72 99 -72 241q0 210 152 364q-40 39 -76 86q-19 25 -31 45t-22 45t-14.5 54.5t-4.5 66.5q0 212 152 365q150 152 366 152q215 0 366 -152
q152 -151 152 -365v-35h-390v35q0 50 -38 87.5t-88 37.5q-51 0 -88.5 -37.5t-37.5 -88.5q0 -29 7 -36q14 -15 46 -34q67 -44 82 -48q20 -6 107 -31q199 -57 327 -222q74 -96 74 -242q0 -213 -155 -367z" />
    <glyph glyph-name="copyright" unicode="&#xa9;" horiz-adv-x="1060" 
d="M530 1647q202 0 343 -142q142 -141 142 -343q0 -200 -142.5 -342.5t-342.5 -142.5t-342.5 142.5t-142.5 342.5q0 202 142 343q140 142 343 142zM243 1162q0 76 39.5 142t106 105t141.5 40l52 1l59 -25q48 -21 91 -60l27 -25l-123 -122l-25 26q-34 34 -81 34t-81.5 -34.5
t-34.5 -81.5q0 -48 34 -82t82 -34q47 0 83 34l25 24l120 -121l-26 -24q-88 -83 -202 -83q-118 0 -202.5 84t-84.5 202zM851 1162q0 87 -43 161t-117 117.5t-161 43.5q-86 0 -160 -43.5t-117.5 -117.5t-43.5 -161q0 -86 43.5 -160.5t117.5 -117.5t160 -43t160 43.5
t117.5 117.5t43.5 160z" />
    <glyph glyph-name="uni00AD" unicode="&#xad;" horiz-adv-x="2048" 
d="M638 0l-2 2q42 0 84 16.5t75.5 43.5t55 65.5t21.5 79.5q0 44 -20 79.5t-48.5 58t-73.5 42.5t-81.5 30t-87 24.5t-76.5 23.5q-75 25 -142.5 63.5t-126 90.5t-101.5 113.5t-67.5 136.5t-24.5 155q0 84 22 163.5t61.5 147t96.5 124t124.5 96t147 61.5t163.5 22
q114 0 219.5 -41t185.5 -111t134 -168t69 -209l-402 -85q0 83 -60.5 143.5t-143.5 60.5q-55 0 -102.5 -27.5t-75 -75t-27.5 -102.5q0 -26 7 -50.5t17.5 -43.5t29.5 -37t35.5 -30.5t43.5 -26.5t45.5 -22t50.5 -18.5t48.5 -15.5t48.5 -14.5t44 -12.5q97 -28 182 -77.5
t152 -118t105.5 -159.5t38.5 -193q0 -124 -53 -238.5t-141 -196.5t-206 -130.5t-244 -48.5q-154 0 -292.5 69t-231 190.5t-115.5 269.5l402 85q0 -54 35.5 -102t89.5 -75t111 -27z" />
    <glyph glyph-name="registered" unicode="&#xae;" horiz-adv-x="1060" 
d="M851 1162q0 87 -43 161t-117 117.5t-161 43.5q-84 0 -151 -37h148q92 0 155 -60q58 -61 58 -140v-15q0 -48 -25 -92t-62 -67l95 -147q103 98 103 236zM567 1244q0 18 -10.5 26t-35.5 8h-21v-70l36 -1q13 0 22 10.5t9 26.5zM530 1647q202 0 343 -142q142 -141 142 -343
q0 -200 -142.5 -342.5t-342.5 -142.5t-342.5 142.5t-142.5 342.5q0 202 142 343q140 142 343 142zM377 879q68 -38 153 -38q86 0 154 38h-110l-74 113v-113h-123zM330 1414q-57 -47 -89 -111.5t-32 -140.5q0 -51 15 -97.5t41.5 -84.5t64.5 -69v503z" />
    <glyph glyph-name="macron" unicode="&#xaf;" horiz-adv-x="1992" 
d="M1541 1205q23 52 76 89t114 37q74 0 124 -52v189h-1717v-365l38 305l229 -376l328 383l-61 -498l269 472l167 -512q4 29 32 247l25 204h192q66 0 116 -33.5t68 -89.5zM35 1571h1922v-1530h-1922v1530zM1750 1113q68 -26 105 -79v79h-105zM1727 1120l1 30q0 9 -2 11.5
t-8 2.5q-10 0 -18 -11.5t0 -17.5q11 -8 27 -15zM1677 963l-5 -25q-1 -10 10 -10q8 0 15 8t7 17q-14 5 -27 10zM1306 1089h32q18 0 32 23.5t0 39.5q-8 8 -32 8h-24q-5 -42 -8 -71zM243 764l210 -228l44 356l-123 -145l-91 151l-16 -134h-24zM1538 1072q-13 -37 -39 -68.5
t-60 -50.5l100 -190h-22l-350 -620h688v734q-24 -49 -76 -83t-109 -34q-76 0 -127 55.5t-41 132.5l4 31h138q-75 28 -106 93zM961 769q-6 17 -24 71h-122l-41 -71h187zM1007 628l-3 -28h-198l-4 -31h148l-20 -169h-149l-4 -30h199l-20 -169h-369l69 563h-3
q-15 -120 -42 -340.5t-35 -277.5l-262 284l-28 -231h-148v-56h1024zM1337 767l-59 111l-14 -115h-120q13 -42 37 -119t30 -95l120 218h6zM138 383l47 381h-47v-381z" />
    <glyph glyph-name="degree" unicode="&#xb0;" horiz-adv-x="684" 
d="M446 1492q0 42 -31 73t-73 31t-73 -31t-31 -73q0 -21 8 -40.5t22 -33.5t33.5 -22t40.5 -8q43 0 73.5 30.5t30.5 73.5zM25 1490.5q0 84.5 43 158t116 117t158 43.5q64 0 122.5 -25.5t101 -68.5t68 -101.5t25.5 -122.5q0 -85 -43 -158.5t-116 -116t-158 -42.5t-158 43
t-116 116t-43 157.5z" />
    <glyph glyph-name="plusminus" unicode="&#xb1;" horiz-adv-x="1992" 
d="M1541 1205q23 52 76 89t114 37q74 0 124 -52v189h-1717v-365l38 305l229 -376l328 383l-61 -498l269 472l167 -512q4 29 32 247l25 204h192q66 0 116 -33.5t68 -89.5zM35 1571h1922v-1530h-1922v1530zM1750 1113q68 -26 105 -79v79h-105zM1727 1120l1 30q0 9 -2 11.5
t-8 2.5q-10 0 -18 -11.5t0 -17.5q11 -8 27 -15zM1677 963l-5 -25q-1 -10 10 -10q8 0 15 8t7 17q-14 5 -27 10zM1306 1089h32q18 0 32 23.5t0 39.5q-8 8 -32 8h-24q-5 -42 -8 -71zM243 764l210 -228l44 356l-123 -145l-91 151l-16 -134h-24zM1538 1072q-13 -37 -39 -68.5
t-60 -50.5l100 -190h-22l-350 -620h688v734q-24 -49 -76 -83t-109 -34q-76 0 -127 55.5t-41 132.5l4 31h138q-75 28 -106 93zM961 769q-6 17 -24 71h-122l-41 -71h187zM1007 628l-3 -28h-198l-4 -31h148l-20 -169h-149l-4 -30h199l-20 -169h-369l69 563h-3
q-15 -120 -42 -340.5t-35 -277.5l-262 284l-28 -231h-148v-56h1024zM1337 767l-59 111l-14 -115h-120q13 -42 37 -119t30 -95l120 218h6zM138 383l47 381h-47v-381z" />
    <glyph glyph-name="uni00B2" unicode="&#xb2;" horiz-adv-x="1992" 
d="M1541 1205q23 52 76 89t114 37q74 0 124 -52v189h-1717v-365l38 305l229 -376l328 383l-61 -498l269 472l167 -512q4 29 32 247l25 204h192q66 0 116 -33.5t68 -89.5zM35 1571h1922v-1530h-1922v1530zM1750 1113q68 -26 105 -79v79h-105zM1727 1120l1 30q0 9 -2 11.5
t-8 2.5q-10 0 -18 -11.5t0 -17.5q11 -8 27 -15zM1677 963l-5 -25q-1 -10 10 -10q8 0 15 8t7 17q-14 5 -27 10zM1306 1089h32q18 0 32 23.5t0 39.5q-8 8 -32 8h-24q-5 -41 -8 -71zM243 764l210 -228l44 356l-123 -145l-91 152l-16 -135h-24zM1538 1072q-13 -37 -39 -68.5
t-60 -50.5l100 -190h-22l-350 -620h688v734q-15 -31 -43.5 -57.5t-66 -43t-75.5 -16.5q-76 0 -127 55.5t-41 132.5l4 31h138q-75 28 -106 93zM961 769q-6 17 -24 71h-122l-41 -71h187zM1007 628l-3 -28h-198l-4 -31h149l-21 -169h-149l-4 -30h200l-21 -169h-369l69 563h-3
q-15 -120 -42 -340.5t-35 -277.5l-262 284l-28 -231h-148v-56h1024zM1337 767l-59 111l-14 -115h-120q13 -42 37 -119t30 -95l120 218h6zM138 383l47 381h-47v-381z" />
    <glyph glyph-name="uni00B3" unicode="&#xb3;" horiz-adv-x="1992" 
d="M1541 1205q23 52 76 89t114 37q74 0 124 -52v189h-1717v-365l38 305l229 -376l328 383l-61 -498l269 472l167 -512q4 29 32 247l25 204h192q66 0 116 -33.5t68 -89.5zM35 1571h1922v-1530h-1922v1530zM1750 1113q68 -26 105 -79v79h-105zM1727 1120l1 30q0 9 -2 11.5
t-8 2.5q-10 0 -18 -11.5t0 -17.5q11 -8 27 -15zM1677 963l-5 -25q-1 -10 10 -10q8 0 15 8t7 17q-14 5 -27 10zM1306 1089h32q18 0 32 23.5t0 39.5q-8 8 -32 8h-24q-5 -41 -8 -71zM243 764l210 -228l44 356l-123 -145l-91 152l-16 -135h-24zM1538 1072q-13 -37 -39 -68.5
t-60 -50.5l100 -190h-22l-350 -620h688v734q-15 -31 -43.5 -57.5t-66 -43t-75.5 -16.5q-76 0 -127 55.5t-41 132.5l4 31h138q-75 28 -106 93zM961 769q-6 17 -24 71h-122l-41 -71h187zM1007 628l-3 -28h-198l-4 -31h149l-21 -169h-149l-4 -30h200l-21 -169h-369l69 563h-3
q-15 -120 -42 -340.5t-35 -277.5l-262 284l-28 -231h-148v-56h1024zM1337 767l-59 111l-14 -115h-120q13 -42 37 -119t30 -95l120 218h6zM138 383l47 381h-47v-381z" />
    <glyph glyph-name="acute" unicode="&#xb4;" horiz-adv-x="1992" 
d="M1541 1205q23 52 76 89t114 37q74 0 124 -52v189h-1717v-365l38 305l229 -376l328 383l-61 -498l269 472l167 -512q4 29 32 247l25 204h192q66 0 116 -33.5t68 -89.5zM35 1571h1922v-1530h-1922v1530zM1750 1113q68 -26 105 -79v79h-105zM1727 1120l1 30q0 9 -2 11.5
t-8 2.5q-10 0 -18 -11.5t0 -17.5q11 -8 27 -15zM1677 963l-5 -25q-1 -10 10 -10q8 0 15 8t7 17q-14 5 -27 10zM1306 1089h32q18 0 32 23.5t0 39.5q-8 8 -32 8h-24q-5 -41 -8 -71zM243 764l210 -228l44 356l-123 -145l-91 152l-16 -135h-24zM1538 1072q-13 -37 -39 -68.5
t-60 -50.5l100 -190h-22l-350 -620h688v734q-15 -31 -43.5 -57.5t-66 -43t-75.5 -16.5q-76 0 -127 55.5t-41 132.5l4 31h138q-75 28 -106 93zM961 769q-6 17 -24 71h-122l-41 -71h187zM1007 628l-3 -28h-198l-4 -31h149l-21 -169h-149l-4 -30h200l-21 -169h-369l69 563h-3
q-15 -120 -42 -340.5t-35 -277.5l-262 284l-28 -231h-148v-56h1024zM1337 767l-59 111l-14 -115h-120q13 -42 37 -119t30 -95l120 218h6zM138 383l47 381h-47v-381z" />
    <glyph glyph-name="mu" unicode="&#xb5;" horiz-adv-x="1992" 
d="M1541 1205q23 52 76 89t114 37q74 0 124 -52v189h-1717v-365l38 305l229 -376l328 383l-61 -498l269 472l167 -512q4 29 32 247l25 204h192q66 0 116 -33.5t68 -89.5zM35 1571h1922v-1530h-1922v1530zM1750 1113q68 -26 105 -79v79h-105zM1727 1120l1 30q0 9 -2 11.5
t-8 2.5q-10 0 -18 -11.5t0 -17.5q11 -8 27 -15zM1677 963l-5 -25q-1 -10 10 -10q8 0 15 8t7 17q-14 5 -27 10zM1306 1089h32q18 0 32 23.5t0 39.5q-8 8 -32 8h-24q-5 -41 -8 -71zM243 764l210 -228l44 356l-123 -145l-91 152l-16 -135h-24zM1538 1072q-13 -37 -39 -68.5
t-60 -50.5l100 -190h-22l-350 -620h688v734q-15 -31 -43.5 -57.5t-66 -43t-75.5 -16.5q-76 0 -127 55.5t-41 132.5l4 31h138q-75 28 -106 93zM961 769q-6 17 -24 71h-122l-41 -71h187zM1007 628l-3 -28h-198l-4 -31h149l-21 -169h-149l-4 -30h200l-21 -169h-369l69 563h-3
q-15 -120 -42 -340.5t-35 -277.5l-262 284l-28 -231h-148v-56h1024zM1337 767l-59 111l-14 -115h-120q13 -42 37 -119t30 -95l120 218h6zM138 383l47 381h-47v-381z" />
    <glyph glyph-name="paragraph" unicode="&#xb6;" horiz-adv-x="1992" 
d="M1541 1205q23 52 76 89t114 37q74 0 124 -52v189h-1717v-365l38 305l229 -376l328 383l-61 -498l269 472l167 -512q4 29 32 247l25 204h192q66 0 116 -33.5t68 -89.5zM35 1571h1922v-1530h-1922v1530zM1750 1113q68 -26 105 -79v79h-105zM1727 1120l1 30q0 9 -2 11.5
t-8 2.5q-10 0 -18 -11.5t0 -17.5q11 -8 27 -15zM1677 963l-5 -25q-1 -10 10 -10q8 0 15 8t7 17q-14 5 -27 10zM1306 1089h32q18 0 32 23.5t0 39.5q-8 8 -32 8h-24q-5 -42 -8 -71zM243 764l210 -228l44 356l-123 -145l-91 151l-16 -134h-24zM1538 1072q-13 -37 -39 -68.5
t-60 -50.5l100 -190h-22l-350 -620h688v734q-24 -49 -76 -83t-109 -34q-76 0 -127 55.5t-41 132.5l4 31h138q-75 28 -106 93zM961 769q-6 17 -24 71h-122l-41 -71h187zM1007 628l-3 -28h-198l-4 -31h148l-20 -169h-149l-4 -30h199l-20 -169h-369l69 563h-3
q-15 -120 -42 -340.5t-35 -277.5l-262 284l-28 -231h-148v-56h1024zM1337 767l-59 111l-14 -115h-120q13 -42 37 -119t30 -95l120 218h6zM138 383l47 381h-47v-381z" />
    <glyph glyph-name="onequarter" unicode="&#xbc;" horiz-adv-x="1992" 
d="M1541 1205q23 52 76 89t114 37q74 0 124 -52v189h-1717v-365l38 305l229 -376l328 383l-61 -498l269 472l167 -512q4 29 32 247l25 204h192q66 0 116 -33.5t68 -89.5zM35 1571h1922v-1530h-1922v1530zM1750 1113q68 -26 105 -79v79h-105zM1727 1120l1 30q0 9 -2 11.5
t-8 2.5q-10 0 -18 -11.5t0 -17.5q11 -8 27 -15zM1677 963l-5 -25q-1 -10 10 -10q8 0 15 8t7 17q-14 5 -27 10zM1306 1089h32q18 0 32 23.5t0 39.5q-8 8 -32 8h-24q-5 -41 -8 -71zM243 764l210 -228l44 356l-123 -145l-91 152l-16 -135h-24zM1538 1072q-13 -37 -39 -68.5
t-60 -50.5l100 -190h-22l-350 -620h688v734q-15 -31 -43.5 -57.5t-66 -43t-75.5 -16.5q-76 0 -127 55.5t-41 132.5l4 31h138q-75 28 -106 93zM961 769q-6 17 -24 71h-122l-41 -71h187zM1007 628l-3 -28h-198l-4 -31h149l-21 -169h-149l-4 -30h200l-21 -169h-369l69 563h-3
q-15 -120 -42 -340.5t-35 -277.5l-262 284l-28 -231h-148v-56h1024zM1337 767l-59 111l-14 -115h-120q13 -42 37 -119t30 -95l120 218h6zM138 383l47 381h-47v-381z" />
    <glyph glyph-name="onehalf" unicode="&#xbd;" horiz-adv-x="1992" 
d="M1541 1205q23 52 76 89t114 37q74 0 124 -52v189h-1717v-365l38 305l229 -376l328 383l-61 -498l269 472l167 -512q4 29 32 247l25 204h192q66 0 116 -33.5t68 -89.5zM35 1571h1922v-1530h-1922v1530zM1750 1113q68 -26 105 -79v79h-105zM1727 1120l1 30q0 9 -2 11.5
t-8 2.5q-10 0 -18 -11.5t0 -17.5q11 -8 27 -15zM1677 963l-5 -25q-1 -10 10 -10q8 0 15 8t7 17q-14 5 -27 10zM1306 1089h32q18 0 32 23.5t0 39.5q-8 8 -32 8h-24q-5 -41 -8 -71zM243 764l210 -228l44 356l-123 -145l-91 152l-16 -135h-24zM1538 1072q-13 -37 -39 -68.5
t-60 -50.5l100 -190h-22l-350 -620h688v734q-15 -31 -43.5 -57.5t-66 -43t-75.5 -16.5q-76 0 -127 55.5t-41 132.5l4 31h138q-75 28 -106 93zM961 769q-6 17 -24 71h-122l-41 -71h187zM1007 628l-3 -28h-198l-4 -31h149l-21 -169h-149l-4 -30h200l-21 -169h-369l69 563h-3
q-15 -120 -42 -340.5t-35 -277.5l-262 284l-28 -231h-148v-56h1024zM1337 767l-59 111l-14 -115h-120q13 -42 37 -119t30 -95l120 218h6zM138 383l47 381h-47v-381z" />
    <glyph glyph-name="threequarters" unicode="&#xbe;" horiz-adv-x="1992" 
d="M1541 1205q23 52 76 89t114 37q74 0 124 -52v189h-1717v-365l38 305l229 -376l328 383l-61 -498l269 472l167 -512q4 29 32 247l25 204h192q66 0 116 -33.5t68 -89.5zM35 1571h1922v-1530h-1922v1530zM1750 1113q68 -26 105 -79v79h-105zM1727 1120l1 30q0 9 -2 11.5
t-8 2.5q-10 0 -18 -11.5t0 -17.5q11 -8 27 -15zM1677 963l-5 -25q-1 -10 10 -10q8 0 15 8t7 17q-14 5 -27 10zM1306 1089h32q18 0 32 23.5t0 39.5q-8 8 -32 8h-24q-5 -41 -8 -71zM243 764l210 -228l44 356l-123 -145l-91 152l-16 -135h-24zM1538 1072q-13 -37 -39 -68.5
t-60 -50.5l100 -190h-22l-350 -620h688v734q-15 -31 -43.5 -57.5t-66 -43t-75.5 -16.5q-76 0 -127 55.5t-41 132.5l4 31h138q-75 28 -106 93zM961 769q-6 17 -24 71h-122l-41 -71h187zM1007 628l-3 -28h-198l-4 -31h149l-21 -169h-149l-4 -30h200l-21 -169h-369l69 563h-3
q-15 -120 -42 -340.5t-35 -277.5l-262 284l-28 -231h-148v-56h1024zM1337 767l-59 111l-14 -115h-120q13 -42 37 -119t30 -95l120 218h6zM138 383l47 381h-47v-381z" />
    <glyph glyph-name="questiondown" unicode="&#xbf;" horiz-adv-x="1133" 
d="M576 1458q99 0 170.5 -71.5t71.5 -169.5q0 -99 -71 -168.5t-171 -69.5t-171 71t-71 171q0 98 71.5 167.5t170.5 69.5zM568 121q34 0 64 17.5t47 47t17 64.5v35h397v-35q0 -218 -155 -371q-154 -155 -371 -155t-373 155q-154 155 -154 371q0 50 13 95.5t37.5 83.5t48 65
t56.5 58q83 84 158 163q31 33 39.5 68.5t-3.5 104.5l-9 42l407 1v-64q0 -76 -13 -130.5t-42 -105.5q-52 -92 -148 -188q-48 -47 -99 -108q-46 -56 -46 -85q0 -52 38.5 -90.5t90.5 -38.5z" />
    <glyph glyph-name="Agrave" unicode="&#xc0;" horiz-adv-x="1729" 
d="M478 2042l273 196l328 -423l-182 -128zM865 784l-105 -218h208zM467 0h-427l777 1610h94l778 -1610h-428l-119 245h-556z" />
    <glyph glyph-name="Aacute" unicode="&#xc1;" horiz-adv-x="1729" 
d="M650 1815l328 423l273 -196l-417 -355zM865 784l-105 -218h208zM467 0h-427l777 1610h94l778 -1610h-428l-119 245h-556z" />
    <glyph glyph-name="Acircumflex" unicode="&#xc2;" horiz-adv-x="1729" 
d="M772 1679h-268l358 515l360 -515h-270l-90 128zM865 784l-105 -218h208zM467 0h-427l777 1610h94l778 -1610h-428l-119 245h-556z" />
    <glyph glyph-name="Atilde" unicode="&#xc3;" horiz-adv-x="1709" 
d="M855 784l-105 -218h208zM1319 2006l-3 -270l13 -12l-20 -25q-78 -97 -180 -85q-76 9 -270 71l820 -1685h-428l-119 245h-556l-119 -245h-427l820 1688q-78 24 -132 32t-73 2q-55 -17 -137 -94l-63 -60l-7 276q84 92 178 119q50 14 123 -1t183 -57q58 -23 108 -36
t73.5 -14.5t37.5 0.5q54 21 116 84z" />
    <glyph glyph-name="Adieresis" unicode="&#xc4;" horiz-adv-x="1729" 
d="M947 1834q0 26 9 50t25.5 43t37.5 33.5t46.5 22t51.5 7.5q45 0 83.5 -20t62 -56.5t23.5 -79.5q0 -66 -50 -110.5t-119 -44.5q-68 0 -119 45t-51 110zM454 1834q0 65 50.5 110.5t119.5 45.5q44 0 83 -20.5t63 -57t24 -78.5q0 -65 -51 -110t-119 -45q-45 0 -84 20t-62.5 56
t-23.5 79zM865 784l-105 -218h208zM467 0h-427l777 1610h94l778 -1610h-428l-119 245h-556z" />
    <glyph glyph-name="Aring" unicode="&#xc5;" horiz-adv-x="1729" 
d="M865 784l-105 -218h208zM916 1852q0 27 -9.5 35.5t-39.5 8.5q-20 0 -30 -3.5t-14 -12.5t-4 -28q0 -26 9 -34.5t39 -8.5t39.5 8.5t9.5 34.5zM622 1853q0 94 73 159t172 65q38 0 75 -11t67.5 -31.5t54 -48t36.5 -62t13 -71.5q0 -87 -64.5 -150.5t-152.5 -72.5l793 -1630
h-428l-119 245h-556l-119 -245h-427l792 1631q-86 11 -148 74t-62 148z" />
    <glyph glyph-name="AE" unicode="&#xc6;" horiz-adv-x="2181" 
d="M1073 213h-493l-116 -209h-434l789 1615h1332v-393h-665v-220h503v-393h-503v-220h665v-393h-1078v213zM751 571l323 4v667z" />
    <glyph glyph-name="Ccedilla" unicode="&#xc7;" horiz-adv-x="1612" 
d="M682 -162q51 56 67 165q-267 43 -468 225q-251 237 -251 576q0 338 251 580q267 241 644 241h48l-1 -5q163 -8 308 -66q158 -66 276 -182l25 -25l-283 -282l-27 25q-144 135 -345 135q-202 0 -343 -127q-144 -129 -144 -305q0 -178 143 -305q143 -126 344 -126t347 127
l26 23l283 -264l-25 -23q-91 -86 -207.5 -144t-254.5 -79q-6 -148 -66 -272.5t-147 -192.5l-115 -88l-275 267l87 29q3 1 16 11t37 32t50 50z" />
    <glyph glyph-name="Egrave" unicode="&#xc8;" 
d="M719 1690l-426 355l277 196l336 -423zM80 0v1620h1112v-394h-698v-219h536v-394h-536v-219h698v-394h-1112z" />
    <glyph glyph-name="Eacute" unicode="&#xc9;" 
d="M80 0v1620h1112v-394h-698v-219h536v-394h-536v-219h698v-394h-1112zM412 1818l336 423l272 -196l-421 -355z" />
    <glyph glyph-name="Ecircumflex" unicode="&#xca;" 
d="M80 0v1620h1112v-394h-698v-219h536v-394h-536v-219h698v-394h-1112zM547 1683h-271l362 515l365 -515h-271l-93 128z" />
    <glyph glyph-name="Edieresis" unicode="&#xcb;" 
d="M218 1867q0 43 21.5 79t58 56.5t81.5 20.5q69 0 122 -45.5t53 -110.5t-52.5 -110t-122.5 -45q-45 0 -82 20t-58 56t-21 79zM709 1867q0 65 53 110.5t123 45.5q68 0 115 -45.5t47 -110.5q0 -66 -47 -110.5t-115 -44.5q-71 0 -123.5 44.5t-52.5 110.5zM80 0v1619h1112v-393
h-699v-220h537v-393h-537v-220h699v-393h-1112z" />
    <glyph glyph-name="Igrave" unicode="&#xcc;" horiz-adv-x="643" 
d="M382 1690l-382 355l249 196l299 -423zM563 0h-394v1620h394v-1620z" />
    <glyph glyph-name="Iacute" unicode="&#xcd;" horiz-adv-x="658" 
d="M475 0h-395v1620h395v-1620zM110 1818l299 423l249 -196l-380 -355z" />
    <glyph glyph-name="Icircumflex" unicode="&#xce;" horiz-adv-x="727" 
d="M246 1683h-246l361 515l366 -515h-248l-117 128zM596 0h-465v1620h465v-1620z" />
    <glyph glyph-name="Idieresis" unicode="&#xcf;" horiz-adv-x="831" 
d="M0 1867q0 63 46 109.5t109 46.5t118 -48t55 -108t-54.5 -107.5t-118.5 -47.5t-109.5 45.5t-45.5 109.5zM504 1867q0 39 26 75.5t65.5 58.5t79.5 22q64 0 110 -46.5t46 -109.5t-46 -109t-109 -46t-117.5 47.5t-54.5 107.5zM640 0h-465v1619h465v-1619z" />
    <glyph glyph-name="Eth" unicode="&#xd0;" horiz-adv-x="1538" 
d="M596 394q146 0 257 47t176.5 141.5t72.5 226.5q0 101 -36.5 180.5t-102 130.5t-153 77.5t-192.5 26.5h-42v-294l310 -1l-15 -260l-317 1v-276h42zM161 1616h459q397 0 662 -238q226 -218 226 -571t-226 -570q-275 -237 -687 -237h-434v658h-141v282h141v676z" />
    <glyph glyph-name="Ntilde" unicode="&#xd1;" horiz-adv-x="1636" 
d="M1292 2056l-3 -270l14 -12l-21 -25q-85 -97 -184 -85q-82 10 -257 68q-57 19 -105 30t-73.5 12t-40.5 -2q-53 -17 -136 -95l-62 -58l-7 275q85 92 177 119q48 14 120 -1t180 -57q84 -33 141.5 -44.5t74.5 -5.5q53 20 115 84zM100 1616h85l944 -848v848h407v-1616h-89
l-941 846v-846h-406v1616z" />
    <glyph glyph-name="Ograve" unicode="&#xd2;" horiz-adv-x="1778" 
d="M880 1687l-403 355l263 196l316 -423zM280 1383q135 123 280.5 182.5t327.5 59.5q122 0 228.5 -27.5t197.5 -80t181 -134.5q253 -241 253 -578q0 -338 -253 -578q-134 -122 -279.5 -180.5t-327.5 -58.5t-327.5 58.5t-279.5 180.5q-251 240 -251 578t250 578zM1199 1105
q-77 65 -146 94t-165 29q-98 0 -167.5 -29t-143.5 -94q-141 -127 -141 -298q0 -173 141 -297q74 -65 144 -94t167 -29q95 0 164.5 29t146.5 94q141 123 141 297q0 172 -141 298z" />
    <glyph glyph-name="Oacute" unicode="&#xd3;" horiz-adv-x="1778" 
d="M634 1815l316 423l263 -196l-403 -355zM280 1383q135 123 280.5 182.5t327.5 59.5q181 0 327 -59.5t281 -182.5q252 -241 252 -578t-252 -578q-90 -81 -181.5 -133t-197.5 -79t-229 -27q-182 0 -327.5 58.5t-280.5 180.5q-250 241 -250 578q0 336 250 578zM1199 1105
q-77 65 -146 94t-165 29q-97 0 -166.5 -29t-144.5 -94q-141 -127 -141 -298q0 -173 141 -297q75 -65 144.5 -94t166.5 -29q65 0 118.5 14t97.5 39.5t95 69.5q141 123 141 297q0 172 -141 298z" />
    <glyph glyph-name="Ocircumflex" unicode="&#xd4;" horiz-adv-x="1778" 
d="M797 1680h-259l346 515l348 -515h-262l-86 128zM280 1383q135 123 280.5 182.5t327.5 59.5q122 0 228.5 -27.5t197.5 -80t181 -134.5q253 -241 253 -578q0 -338 -253 -578q-134 -122 -279.5 -180.5t-327.5 -58.5t-327.5 58.5t-280.5 180.5q-250 241 -250 578
q0 336 250 578zM1199 1105q-77 65 -146 94t-165 29q-97 0 -166.5 -29t-144.5 -94q-141 -127 -141 -298q0 -173 141 -297q75 -65 144.5 -94t166.5 -29q95 0 164.5 29t146.5 94q141 123 141 297q0 172 -141 298z" />
    <glyph glyph-name="Otilde" unicode="&#xd5;" horiz-adv-x="1777" 
d="M1297 2056l-3 -269l13 -12l-20 -25q-20 -23 -39.5 -40t-40 -26.5t-37.5 -15t-40.5 -4.5t-40.5 3t-45.5 11t-47.5 15.5t-54 19t-58 20.5q-152 51 -185 40q-53 -17 -132 -94l-61 -60l-8 276q92 95 173 119q20 6 41.5 6t41 -2.5t52 -13t57 -20l73.5 -28.5q152 -61 182 -50
q52 20 114 84zM280 1383q135 123 280.5 182t327.5 59t327.5 -59t279.5 -182q252 -241 252 -579q0 -339 -252 -577q-134 -122 -279.5 -180.5t-327.5 -58.5t-327.5 58.5t-279.5 180.5q-251 238 -251 577q0 337 250 579zM1198 1104q-76 65 -145 94.5t-165 29.5
q-97 0 -166.5 -29.5t-144.5 -94.5q-141 -124 -141 -297q0 -176 141 -298q74 -65 143.5 -94t167.5 -29q96 0 165.5 29t144.5 95q142 121 142 297q0 173 -142 297z" />
    <glyph glyph-name="Odieresis" unicode="&#xd6;" horiz-adv-x="1777" 
d="M482 1864q0 65 49 110.5t116 45.5q65 0 114.5 -46t49.5 -110q0 -42 -23 -78t-60.5 -56.5t-80.5 -20.5q-67 0 -116 45t-49 110zM959 1864q0 32 13.5 61t35.5 49.5t52 33t63 12.5q65 0 115 -46t50 -110t-49.5 -109.5t-115.5 -45.5q-67 0 -115.5 45t-48.5 110zM280 1383
q134 123 279 182t328 59q182 0 327.5 -59t280.5 -182q252 -241 252 -579q0 -339 -252 -577q-135 -122 -280.5 -180.5t-327.5 -58.5q-183 0 -328 58.5t-278 180.5q-251 238 -251 577q0 337 250 579zM1197 1104q-76 65 -145.5 94.5t-164.5 29.5q-96 0 -166 -29.5t-145 -94.5
q-140 -125 -140 -297q0 -175 140 -298q37 -32 70 -54t70.5 -38t79 -23.5t91.5 -7.5q96 0 165.5 29t144.5 95q143 121 143 297q0 172 -143 297z" />
    <glyph glyph-name="multiply" unicode="&#xd7;" horiz-adv-x="2118" 
 />
    <glyph glyph-name="Oslash" unicode="&#xd8;" horiz-adv-x="1817" 
d="M1043 1613l75 205h346l-113 -298q100 -55 184 -132q252 -242 252 -580q0 -342 -252 -581q-133 -121 -283 -180.5t-334 -59.5q-60 0 -121 7l-71 -199h-348l108 282q-112 57 -206 143q-250 239 -250 580q0 338 250 581q264 242 638 242q54 0 125 -10zM626 407l297 820h-5
q-200 0 -341 -135q-141 -133 -141 -321q0 -111 50.5 -204.5t139.5 -159.5zM1210 1152l-271 -802q91 4 160 35.5t139 98.5q142 132 142 322q0 202 -170 346z" />
    <glyph glyph-name="Ugrave" unicode="&#xd9;" horiz-adv-x="1603" 
d="M855 1686l-411 355l269 196l322 -423zM801 386q59 0 116 21t101 56.5t70.5 87t26.5 108.5v957h408v-970q0 -275 -201 -466q-210 -192 -520 -192t-521 192q-201 191 -201 466v970h409v-957q0 -76 44 -139.5t115.5 -98.5t152.5 -35z" />
    <glyph glyph-name="Uacute" unicode="&#xda;" horiz-adv-x="1603" 
d="M559 1814l324 423l269 -196l-412 -355zM801 386q59 0 116 21t101 56.5t70.5 87t26.5 108.5v957h408v-970q0 -275 -201 -466q-210 -192 -520 -192t-521 192q-201 191 -201 466v970h409v-957q0 -76 44 -139.5t115.5 -98.5t152.5 -35z" />
    <glyph glyph-name="Ucircumflex" unicode="&#xdb;" horiz-adv-x="1603" 
d="M711 1679h-266l353 515l356 -515h-267l-89 128zM801 386q80 0 152 35t117 99t45 139v957h408v-970q0 -275 -201 -466q-210 -192 -520 -192t-521 192q-201 191 -201 466v970h409v-957q0 -76 44 -139.5t115.5 -98.5t152.5 -35z" />
    <glyph glyph-name="Udieresis" unicode="&#xdc;" horiz-adv-x="1604" 
d="M395 1863q0 64 50.5 110t117.5 46q44 0 82.5 -20.5t62 -57t23.5 -78.5q0 -64 -50 -109.5t-118 -45.5q-67 0 -117.5 45t-50.5 110zM802 386q80 0 152 35.5t117 99t45 138.5v956h408v-969q0 -273 -201 -466q-213 -192 -520 -192q-310 0 -522 192q-201 193 -201 466v969h408
v-956q0 -75 44.5 -138.5t116.5 -99t153 -35.5zM1047 2019q68 2 118 -45t50 -111q0 -32 -13.5 -61t-36.5 -49.5t-54 -32.5t-64 -12q-68 0 -117.5 45t-49.5 110t49 109.5t118 46.5z" />
    <glyph glyph-name="Yacute" unicode="&#xdd;" horiz-adv-x="1543" 
d="M568 1818l322 423l268 -196l-410 -355zM599 721l-578 899h463l277 -476l278 476h464l-510 -899v-721h-394v721z" />
    <glyph glyph-name="Thorn" unicode="&#xde;" horiz-adv-x="1350" 
d="M70 0v1612h393v-242h240q271 0 442 -165q165 -166 165 -399q0 -232 -165 -399q-171 -165 -442 -165h-240v-242h-393zM926 806q0 55 -31.5 101t-82.5 71t-109 25h-240v-393h240q58 0 109 25t82.5 70.5t31.5 100.5z" />
    <glyph glyph-name="germandbls" unicode="&#xdf;" horiz-adv-x="2477" 
d="M1692 552v-42q0 -44 44.5 -82t103.5 -46h21q62 0 116.5 39t54.5 85q0 19 -8.5 35.5t-21.5 29t-33.5 23.5t-41.5 18.5t-49.5 16t-53 14t-56 13.5t-54.5 15q-85 25 -158.5 67.5t-130.5 99.5t-90 131t-33 157q0 102 42.5 193.5t116 158.5t178.5 106t224 39q108 0 205 -35
t169 -95t119.5 -143.5t60.5 -178.5l4 -31l-414 -84q0 79 -34.5 125t-107.5 46q-59 0 -101.5 -36.5t-42.5 -86.5q0 -21 9 -39.5t22 -32t37.5 -27t43 -22t53 -18.5t54 -15.5t56.5 -14.5q17 -4 26 -6q88 -23 163.5 -62.5t134.5 -95t93 -130t34 -158.5q0 -82 -29.5 -158
t-83.5 -137.5t-126 -107t-160.5 -70.5t-183.5 -25q-145 0 -271 58.5t-207.5 162t-100.5 231.5l-5 31zM442 552v-42q0 -44 44.5 -82t103.5 -46h21q62 0 116.5 39t54.5 85q0 22 -10 40t-29 32t-41 24.5t-53.5 20t-58.5 16t-64 16t-62 16.5q-85 25 -158.5 67.5t-130.5 99.5
t-90 131t-33 157q0 102 42.5 193.5t116 158.5t178.5 106t224 39q108 0 205 -35t169 -95t119.5 -143.5t60.5 -178.5l4 -31l-414 -84q0 79 -34.5 125t-107.5 46q-59 0 -101.5 -36.5t-42.5 -86.5q0 -21 9 -39.5t22 -32t37.5 -27t43 -22t53 -18.5t54 -15.5t56.5 -14.5
q5 -1 7 -1.5l6 -1.5t7 -2t6 -1q88 -23 163.5 -62.5t134.5 -95t93 -130t34 -158.5q0 -82 -29.5 -158t-83.5 -137.5t-126 -107t-160.5 -70.5t-183.5 -25q-145 0 -271 58.5t-207.5 162t-100.5 231.5l-5 31z" />
    <glyph glyph-name="agrave" unicode="&#xe0;" horiz-adv-x="1729" 
d="M478 2042l273 196l328 -423l-182 -128zM865 784l-105 -218h208zM467 0h-427l777 1610h94l778 -1610h-428l-119 245h-556z" />
    <glyph glyph-name="aacute" unicode="&#xe1;" horiz-adv-x="1729" 
d="M650 1815l328 423l273 -196l-417 -355zM865 784l-105 -218h208zM467 0h-427l777 1610h94l778 -1610h-428l-119 245h-556z" />
    <glyph glyph-name="acircumflex" unicode="&#xe2;" horiz-adv-x="1729" 
d="M772 1679h-268l358 515l360 -515h-270l-90 128zM865 784l-105 -218h208zM467 0h-427l777 1610h94l778 -1610h-428l-119 245h-556z" />
    <glyph glyph-name="atilde" unicode="&#xe3;" horiz-adv-x="1709" 
d="M855 784l-105 -218h208zM1319 2006l-3 -270l13 -12l-20 -25q-78 -97 -180 -85q-76 9 -270 71l820 -1685h-428l-119 245h-556l-119 -245h-427l820 1688q-78 24 -132 32t-73 2q-55 -17 -137 -94l-63 -60l-7 276q84 92 178 119q50 14 123 -1t183 -57q58 -23 108 -36
t73.5 -14.5t37.5 0.5q54 21 116 84z" />
    <glyph glyph-name="adieresis" unicode="&#xe4;" horiz-adv-x="1729" 
d="M947 1834q0 26 9 50t25.5 43t37.5 33.5t46.5 22t51.5 7.5q45 0 83.5 -20t62 -56.5t23.5 -79.5q0 -66 -50 -110.5t-119 -44.5q-68 0 -119 45t-51 110zM454 1834q0 65 50.5 110.5t119.5 45.5q44 0 83 -20.5t63 -57t24 -78.5q0 -65 -51 -110t-119 -45q-45 0 -84 20t-62.5 56
t-23.5 79zM865 784l-105 -218h208zM467 0h-427l777 1610h94l778 -1610h-428l-119 245h-556z" />
    <glyph glyph-name="aring" unicode="&#xe5;" horiz-adv-x="1729" 
d="M865 784l-105 -218h208zM916 1852q0 27 -9.5 35.5t-39.5 8.5q-20 0 -30 -3.5t-14 -12.5t-4 -28q0 -26 9 -34.5t39 -8.5t39.5 8.5t9.5 34.5zM622 1853q0 94 73 159t172 65q38 0 75 -11t67.5 -31.5t54 -48t36.5 -62t13 -71.5q0 -87 -64.5 -150.5t-152.5 -72.5l793 -1630
h-428l-119 245h-556l-119 -245h-427l792 1631q-86 11 -148 74t-62 148z" />
    <glyph glyph-name="ae" unicode="&#xe6;" horiz-adv-x="2181" 
d="M1073 213h-493l-116 -209h-434l789 1615h1332v-393h-665v-220h503v-393h-503v-220h665v-393h-1078v213zM751 571l323 4v667z" />
    <glyph glyph-name="ccedilla" unicode="&#xe7;" horiz-adv-x="1612" 
d="M682 -162q51 56 67 165q-267 43 -468 225q-251 237 -251 576q0 338 251 580q267 241 644 241h48l-1 -5q163 -8 308 -66q158 -66 276 -182l25 -25l-283 -282l-27 25q-144 135 -345 135q-202 0 -343 -127q-144 -129 -144 -305q0 -178 143 -305q143 -126 344 -126t347 127
l26 23l283 -264l-25 -23q-192 -183 -462 -223q-6 -148 -66 -272.5t-147 -192.5l-115 -88l-275 267l87 29q3 1 16 11t37 32t50 50z" />
    <glyph glyph-name="egrave" unicode="&#xe8;" 
d="M719 1690l-426 355l277 196l336 -423zM80 0v1620h1112v-394h-698v-219h536v-394h-536v-219h698v-394h-1112z" />
    <glyph glyph-name="eacute" unicode="&#xe9;" 
d="M80 0v1620h1112v-394h-698v-219h536v-394h-536v-219h698v-394h-1112zM412 1818l336 423l272 -196l-421 -355z" />
    <glyph glyph-name="ecircumflex" unicode="&#xea;" 
d="M80 0v1620h1112v-394h-698v-219h536v-394h-536v-219h698v-394h-1112zM547 1683h-271l362 515l365 -515h-271l-93 128z" />
    <glyph glyph-name="edieresis" unicode="&#xeb;" 
d="M218 1867q0 43 21.5 79t58 56.5t81.5 20.5q69 0 122 -45.5t53 -110.5t-52.5 -110t-122.5 -45q-45 0 -82 20t-58 56t-21 79zM709 1867q0 65 53 110.5t123 45.5q68 0 115 -45.5t47 -110.5q0 -66 -47 -110.5t-115 -44.5q-71 0 -123.5 44.5t-52.5 110.5zM80 0v1619h1112v-393
h-699v-220h537v-393h-537v-220h699v-393h-1112z" />
    <glyph glyph-name="igrave" unicode="&#xec;" horiz-adv-x="643" 
d="M382 1690l-382 355l249 196l299 -423zM563 0h-394v1620h394v-1620z" />
    <glyph glyph-name="iacute" unicode="&#xed;" horiz-adv-x="658" 
d="M475 0h-395v1620h395v-1620zM110 1818l299 423l249 -196l-380 -355z" />
    <glyph glyph-name="icircumflex" unicode="&#xee;" horiz-adv-x="727" 
d="M246 1683h-246l361 515l366 -515h-248l-117 128zM596 0h-465v1620h465v-1620z" />
    <glyph glyph-name="idieresis" unicode="&#xef;" horiz-adv-x="831" 
d="M0 1867q0 63 46 109.5t109 46.5t118 -48t55 -108t-54.5 -107.5t-118.5 -47.5t-109.5 45.5t-45.5 109.5zM504 1867q0 39 26 75.5t65.5 58.5t79.5 22q64 0 110 -46.5t46 -109.5t-46 -109t-109 -46t-117.5 47.5t-54.5 107.5zM640 0h-465v1619h465v-1619z" />
    <glyph glyph-name="eth" unicode="&#xf0;" horiz-adv-x="1538" 
d="M596 394q146 0 257 47t176.5 141.5t72.5 226.5q0 101 -36.5 180.5t-102 130.5t-153 77.5t-192.5 26.5h-42v-294l310 -1l-15 -260l-317 1v-276h42zM161 1616h459q397 0 662 -238q226 -218 226 -571t-226 -570q-275 -237 -687 -237h-434v658h-141v282h141v676z" />
    <glyph glyph-name="ntilde" unicode="&#xf1;" horiz-adv-x="1636" 
d="M1292 2062l-3 -270l14 -12l-21 -25q-85 -97 -184 -85q-82 10 -257 68q-57 19 -105 30t-73.5 12t-40.5 -2q-53 -17 -136 -95l-62 -58l-7 275q85 92 177 119q48 14 120 -1t180 -57q84 -33 141.5 -44.5t74.5 -5.5q53 20 115 84zM100 1622h85l944 -848v848h407v-1616h-89
l-941 846v-846h-406v1616z" />
    <glyph glyph-name="ograve" unicode="&#xf2;" horiz-adv-x="1778" 
d="M880 1687l-403 355l263 196l316 -423zM280 1383q135 123 280.5 182.5t327.5 59.5q122 0 228.5 -27.5t197.5 -80t181 -134.5q253 -241 253 -578q0 -338 -253 -578q-134 -122 -279.5 -180.5t-327.5 -58.5t-327.5 58.5t-279.5 180.5q-251 240 -251 578t250 578zM1199 1105
q-77 65 -146 94t-165 29q-98 0 -167.5 -29t-143.5 -94q-141 -127 -141 -298q0 -173 141 -297q74 -65 144 -94t167 -29q95 0 164.5 29t146.5 94q141 123 141 297q0 172 -141 298z" />
    <glyph glyph-name="oacute" unicode="&#xf3;" horiz-adv-x="1778" 
d="M634 1815l316 423l263 -196l-403 -355zM280 1383q135 123 280.5 182.5t327.5 59.5q181 0 327 -59.5t281 -182.5q252 -241 252 -578t-252 -578q-90 -81 -181.5 -133t-197.5 -79t-229 -27q-182 0 -327.5 58.5t-280.5 180.5q-250 241 -250 578q0 336 250 578zM1199 1105
q-77 65 -146 94t-165 29q-97 0 -166.5 -29t-144.5 -94q-141 -127 -141 -298q0 -173 141 -297q75 -65 144.5 -94t166.5 -29q65 0 118.5 14t97.5 39.5t95 69.5q141 123 141 297q0 172 -141 298z" />
    <glyph glyph-name="ocircumflex" unicode="&#xf4;" horiz-adv-x="1778" 
d="M797 1680h-259l346 515l348 -515h-262l-86 128zM280 1383q135 123 280.5 182.5t327.5 59.5q122 0 228.5 -27.5t197.5 -80t181 -134.5q253 -241 253 -578q0 -338 -253 -578q-134 -122 -279.5 -180.5t-327.5 -58.5t-327.5 58.5t-280.5 180.5q-250 241 -250 578
q0 336 250 578zM1199 1105q-77 65 -146 94t-165 29q-97 0 -166.5 -29t-144.5 -94q-141 -127 -141 -298q0 -173 141 -297q75 -65 144.5 -94t166.5 -29q95 0 164.5 29t146.5 94q141 123 141 297q0 172 -141 298z" />
    <glyph glyph-name="otilde" unicode="&#xf5;" horiz-adv-x="1777" 
d="M1297 2056l-3 -269l13 -12l-20 -25q-20 -23 -39.5 -40t-40 -26.5t-37.5 -15t-40.5 -4.5t-40.5 3t-45.5 11t-47.5 15.5t-54 19t-58 20.5q-152 51 -185 40q-53 -17 -132 -94l-61 -60l-8 276q92 95 173 119q20 6 41.5 6t41 -2.5t52 -13t57 -20l73.5 -28.5q152 -61 182 -50
q52 20 114 84zM280 1383q135 123 280.5 182t327.5 59t327.5 -59t279.5 -182q252 -241 252 -579q0 -339 -252 -577q-134 -122 -279.5 -180.5t-327.5 -58.5t-327.5 58.5t-279.5 180.5q-251 238 -251 577q0 337 250 579zM1198 1104q-76 65 -145 94.5t-165 29.5
q-97 0 -166.5 -29.5t-144.5 -94.5q-141 -124 -141 -297q0 -176 141 -298q74 -65 143.5 -94t167.5 -29q96 0 165.5 29t144.5 95q142 121 142 297q0 173 -142 297z" />
    <glyph glyph-name="odieresis" unicode="&#xf6;" horiz-adv-x="1777" 
d="M482 1864q0 65 49 110.5t116 45.5q65 0 114.5 -46t49.5 -110q0 -42 -23 -78t-60.5 -56.5t-80.5 -20.5q-67 0 -116 45t-49 110zM959 1864q0 32 13.5 61t35.5 49.5t52 33t63 12.5q65 0 115 -46t50 -110t-49.5 -109.5t-115.5 -45.5q-67 0 -115.5 45t-48.5 110zM280 1383
q134 123 279 182t328 59q182 0 327.5 -59t280.5 -182q252 -241 252 -579q0 -339 -252 -577q-135 -122 -280.5 -180.5t-327.5 -58.5q-183 0 -328 58.5t-278 180.5q-251 238 -251 577q0 337 250 579zM1197 1104q-76 65 -145.5 94.5t-164.5 29.5q-96 0 -166 -29.5t-145 -94.5
q-140 -125 -140 -297q0 -175 140 -298q37 -32 70 -54t70.5 -38t79 -23.5t91.5 -7.5q96 0 165.5 29t144.5 95q143 121 143 297q0 172 -143 297z" />
    <glyph glyph-name="divide" unicode="&#xf7;" horiz-adv-x="1992" 
d="M1541 1205q23 52 76 89t114 37q74 0 124 -52v189h-1717v-365l38 305l229 -376l328 383l-61 -498l269 472l167 -512q4 29 32 247l25 204h192q66 0 116 -33.5t68 -89.5zM35 1571h1922v-1530h-1922v1530zM1750 1113q68 -26 105 -79v79h-105zM1727 1120l1 30q0 9 -2 11.5
t-8 2.5q-10 0 -18 -11.5t0 -17.5q11 -8 27 -15zM1677 963l-5 -25q-1 -10 10 -10q8 0 15 8t7 17q-14 5 -27 10zM1306 1089h32q18 0 32 23.5t0 39.5q-8 8 -32 8h-24q-5 -41 -8 -71zM243 764l210 -228l44 356l-123 -145l-91 152l-16 -135h-24zM1538 1072q-13 -37 -39 -68.5
t-60 -50.5l100 -190h-22l-350 -620h688v734q-15 -31 -43.5 -57.5t-66 -43t-75.5 -16.5q-76 0 -127 55.5t-41 132.5l4 31h138q-75 28 -106 93zM961 769q-6 17 -24 71h-122l-41 -71h187zM1007 628l-3 -28h-198l-4 -31h148l-20 -169h-149l-4 -30h199l-20 -169h-369l69 563h-3
q-15 -120 -42 -340.5t-35 -277.5l-262 284l-28 -231h-148v-56h1024zM1337 767l-59 111l-14 -115h-120q13 -42 37 -119t30 -95l120 218h6zM138 383l47 381h-47v-381z" />
    <glyph glyph-name="oslash" unicode="&#xf8;" horiz-adv-x="1817" 
d="M1043 1613l75 205h346l-113 -298q100 -55 184 -132q252 -242 252 -580q0 -342 -252 -581q-133 -121 -283 -180.5t-334 -59.5q-60 0 -121 7l-71 -199h-348l108 282q-112 57 -206 143q-250 239 -250 580q0 338 250 581q264 242 638 242q54 0 125 -10zM626 407l297 820h-5
q-200 0 -341 -135q-141 -133 -141 -321q0 -111 50.5 -204.5t139.5 -159.5zM1210 1152l-271 -802q91 4 160 35.5t139 98.5q142 132 142 322q0 202 -170 346z" />
    <glyph glyph-name="ugrave" unicode="&#xf9;" horiz-adv-x="1603" 
d="M855 1686l-411 355l269 196l322 -423zM801 386q59 0 116 21t101 56.5t70.5 87t26.5 108.5v957h408v-970q0 -275 -201 -466q-210 -192 -520 -192t-521 192q-201 191 -201 466v970h409v-957q0 -76 44 -139.5t115.5 -98.5t152.5 -35z" />
    <glyph glyph-name="uacute" unicode="&#xfa;" horiz-adv-x="1603" 
d="M559 1814l324 423l269 -196l-412 -355zM801 386q59 0 116 21t101 56.5t70.5 87t26.5 108.5v957h408v-970q0 -275 -201 -466q-210 -192 -520 -192t-521 192q-201 191 -201 466v970h409v-957q0 -76 44 -139.5t115.5 -98.5t152.5 -35z" />
    <glyph glyph-name="ucircumflex" unicode="&#xfb;" horiz-adv-x="1603" 
d="M711 1679h-266l353 515l356 -515h-267l-89 128zM801 386q80 0 152 35t117 99t45 139v957h408v-970q0 -275 -201 -466q-210 -192 -520 -192t-521 192q-201 191 -201 466v970h409v-957q0 -76 44 -139.5t115.5 -98.5t152.5 -35z" />
    <glyph glyph-name="udieresis" unicode="&#xfc;" horiz-adv-x="1604" 
d="M395 1863q0 64 50.5 110t117.5 46q44 0 82.5 -20.5t62 -57t23.5 -78.5q0 -64 -50 -109.5t-118 -45.5q-67 0 -117.5 45t-50.5 110zM802 386q80 0 152 35.5t117 99t45 138.5v956h408v-969q0 -273 -201 -466q-213 -192 -520 -192q-310 0 -522 192q-201 193 -201 466v969h408
v-956q0 -75 44.5 -138.5t116.5 -99t153 -35.5zM1047 2019q68 2 118 -45t50 -111q0 -32 -13.5 -61t-36.5 -49.5t-54 -32.5t-64 -12q-68 0 -117.5 45t-49.5 110t49 109.5t118 46.5z" />
    <glyph glyph-name="yacute" unicode="&#xfd;" horiz-adv-x="1543" 
d="M577 1818l323 423l268 -196l-411 -355zM609 721l-579 899h463l278 -476l278 476h464l-510 -899v-721h-394v721z" />
    <glyph glyph-name="thorn" unicode="&#xfe;" horiz-adv-x="1350" 
d="M80 0v1612h393v-242h240q271 0 442 -165q165 -166 165 -399q0 -232 -165 -399q-171 -165 -442 -165h-240v-242h-393zM936 806q0 83 -67 140t-156 57h-240v-393h240q89 0 156 56.5t67 139.5z" />
    <glyph glyph-name="ydieresis" unicode="&#xff;" horiz-adv-x="1543" 
d="M363 1863q0 64 50 110t117 46t117.5 -46t50.5 -110q0 -65 -50 -110t-117.5 -45t-117.5 45t-50 110zM609 721l-579 899h463l278 -476l278 476h464l-510 -899v-721h-394v721zM846 1863q0 65 50.5 110.5t117.5 45.5q43 0 81.5 -21t61.5 -57t23 -78q0 -64 -50 -109.5
t-117 -45.5t-117 45t-50 110z" />
    <glyph glyph-name="Amacron" unicode="&#x100;" horiz-adv-x="1729" 
 />
    <glyph glyph-name="amacron" unicode="&#x101;" horiz-adv-x="1729" 
 />
    <glyph glyph-name="Abreve" unicode="&#x102;" horiz-adv-x="1729" 
d="M864 1932q47 0 81.5 30.5t34.5 74.5v35h241v-35q0 -90 -50 -165.5t-132 -118t-175 -42.5t-175 42.5t-131.5 118t-49.5 165.5v35h241v-35q0 -44 34 -74.5t81 -30.5zM865 784l-105 -218h208zM467 0h-427l777 1610h94l778 -1610h-428l-119 245h-556z" />
    <glyph glyph-name="abreve" unicode="&#x103;" horiz-adv-x="1729" 
d="M864 1932q47 0 81.5 30.5t34.5 74.5v35h241v-35q0 -90 -50 -165.5t-132 -118t-175 -42.5t-175 42.5t-131.5 118t-49.5 165.5v35h241v-35q0 -44 34 -74.5t81 -30.5zM865 784l-105 -218h208zM467 0h-427l777 1610h94l778 -1610h-428l-119 245h-556z" />
    <glyph glyph-name="Aogonek" unicode="&#x104;" horiz-adv-x="1709" 
d="M1679 0h-44q-25 -16 -113 -73q-108 -70 -111 -154q-1 -2 0 -4q3 -2 13 -3.5t23.5 -1.5t29 0.5t30.5 1.5t27.5 2t19.5 1l8 1h30l46 -294h-40q-9 -1 -71 -6q-68 -7 -134 4t-120 34.5t-97 57.5q-88 71 -80 218q5 143 125 254l-97 207h-538l-118 -245h-438l785 1615h78z
M855 778l-97 -212h192z" />
    <glyph glyph-name="aogonek" unicode="&#x105;" horiz-adv-x="1709" 
d="M1679 0h-44q-25 -16 -113 -73q-108 -70 -111 -154q-1 -2 0 -4q3 -2 13 -3.5t23.5 -1.5t29 0.5t30.5 1.5t27.5 2t19.5 1l8 1h30l46 -294h-40q-9 -1 -71 -6q-68 -7 -134 4t-120 34.5t-97 57.5q-88 71 -80 218q5 143 125 254l-97 207h-538l-118 -245h-438l785 1615h78z
M855 778l-97 -212h192z" />
    <glyph glyph-name="Cacute" unicode="&#x106;" horiz-adv-x="1612" 
d="M973 1625l-1 -5q120 -6 231 -40.5t196 -86.5t157 -121l25 -25l-283 -280l-26 24q-146 134 -346 134q-202 0 -343 -123q-144 -126 -144 -298q0 -174 143 -297q142 -123 344 -123q203 0 346 134l27 24l283 -280l-25 -25q-117 -116 -276 -182q-165 -66 -356 -66
q-377 1 -644 238q-251 240 -251 578q0 337 251 579q269 241 644 241h48zM662 1818l320 423l266 -196l-407 -355z" />
    <glyph glyph-name="cacute" unicode="&#x107;" horiz-adv-x="1612" 
d="M973 1625l-1 -5q120 -6 231 -40.5t196 -86.5t157 -121l25 -25l-283 -280l-26 24q-146 134 -346 134q-202 0 -343 -123q-144 -126 -144 -298q0 -174 143 -297q142 -123 344 -123q203 0 346 134l27 24l283 -280l-25 -25q-117 -116 -276 -182q-165 -66 -356 -66
q-377 1 -644 238q-251 240 -251 578q0 337 251 579q269 241 644 241h48zM662 1818l320 423l266 -196l-407 -355z" />
    <glyph glyph-name="Ccaron" unicode="&#x10c;" horiz-adv-x="1612" 
d="M973 1625l-1 -5q120 -6 231 -40.5t196 -86.5t157 -121l25 -25l-283 -280l-26 24q-146 134 -346 134q-202 0 -343 -123q-144 -126 -144 -298q0 -174 143 -297q142 -123 344 -123q203 0 346 134l27 24l283 -280l-25 -25q-117 -116 -276 -182q-165 -66 -356 -66
q-377 1 -644 238q-251 240 -251 578q0 337 251 579q269 241 644 241h48zM860 1642l-351 515h263l88 -128l88 128h264z" />
    <glyph glyph-name="ccaron" unicode="&#x10d;" horiz-adv-x="1612" 
d="M973 1625l-1 -5q120 -6 231 -40.5t196 -86.5t157 -121l25 -25l-283 -280l-26 24q-146 134 -346 134q-202 0 -343 -123q-144 -126 -144 -298q0 -174 143 -297q142 -123 344 -123q203 0 346 134l27 24l283 -280l-25 -25q-117 -116 -276 -182q-165 -66 -356 -66
q-377 1 -644 238q-251 240 -251 578q0 337 251 579q269 241 644 241h48zM860 1642l-351 515h263l88 -128l88 128h264z" />
    <glyph glyph-name="Dcaron" unicode="&#x10e;" horiz-adv-x="1584" 
d="M700 1642l-404 515h316l88 -128l93 128h276zM100 1611h499v1h35q139 0 267.5 -30.5t231 -82.5t185.5 -124q226 -218 226 -570.5t-226 -568.5q-300 -236 -754 -236h-464v1611zM1134 807q0 79 -25 146t-70.5 116t-107.5 83.5t-137.5 51.5t-160.5 17h-114l-6 -828h53
q243 0 392 106t176 308z" />
    <glyph glyph-name="dcaron" unicode="&#x10f;" horiz-adv-x="1584" 
d="M700 1642l-404 515h316l88 -128l93 128h276zM100 1611h499v1h35q139 0 267.5 -30.5t231 -82.5t185.5 -124q226 -218 226 -570.5t-226 -568.5q-300 -236 -754 -236h-464v1611zM1134 807q0 79 -25 146t-70.5 116t-107.5 83.5t-137.5 51.5t-160.5 17h-114l-6 -828h53
q243 0 392 106t176 308z" />
    <glyph glyph-name="Dcroat" unicode="&#x110;" horiz-adv-x="1537" 
d="M596 394q146 0 257 47t176.5 141.5t72.5 226.5q0 101 -36.5 180.5t-102 130.5t-153 77.5t-192.5 26.5h-62v-294l320 -1l-5 -260l-317 1v-276h42zM161 1616h459q397 0 662 -238q226 -218 226 -571t-226 -570q-275 -237 -687 -237h-434v658h-141v282h141v676z" />
    <glyph glyph-name="dcroat" unicode="&#x111;" horiz-adv-x="1538" 
d="M596 394q146 0 257 47t176.5 141.5t72.5 226.5q0 101 -36.5 180.5t-102 130.5t-153 77.5t-192.5 26.5h-62v-294l320 -1l-5 -260l-317 1v-276h42zM161 1616h459q397 0 662 -238q226 -218 226 -571t-226 -570q-275 -237 -687 -237h-434v658h-141v282h141v676z" />
    <glyph glyph-name="Emacron" unicode="&#x112;" 
d="M80 0v1619h1112v-393h-699v-220h537v-393h-537v-220h699v-393h-1112zM275 1931h722v-232h-722v232z" />
    <glyph glyph-name="emacron" unicode="&#x113;" 
d="M80 0v1619h1112v-393h-699v-220h537v-393h-537v-220h699v-393h-1112zM275 1931h722v-232h-722v232z" />
    <glyph glyph-name="Ebreve" unicode="&#x114;" 
d="M80 0v1619h1112v-393h-699v-220h537v-393h-537v-220h699v-393h-1112zM636 1932q47 0 82.5 30.5t35.5 74.5v35h243v-35q0 -138 -102 -231q-107 -95 -259 -95q-153 0 -260 95q-101 93 -101 231v35h243v-35q0 -45 35 -75t83 -30z" />
    <glyph glyph-name="ebreve" unicode="&#x115;" 
d="M80 0v1619h1112v-393h-699v-220h537v-393h-537v-220h699v-393h-1112zM636 1932q47 0 82.5 30.5t35.5 74.5v35h243v-35q0 -138 -102 -231q-107 -95 -259 -95q-153 0 -260 95q-101 93 -101 231v35h243v-35q0 -45 35 -75t83 -30z" />
    <glyph glyph-name="Edotaccent" unicode="&#x116;" 
d="M80 0v1619h1112v-393h-699v-220h537v-393h-537v-220h699v-393h-1112zM438 1878q0 74 59.5 125t138.5 51t138 -51t59 -125t-59 -125t-138 -51q-80 0 -139 50.5t-59 125.5z" />
    <glyph glyph-name="edotaccent" unicode="&#x117;" 
d="M80 0v1619h1112v-393h-699v-220h537v-393h-537v-220h699v-393h-1112zM438 1878q0 74 59.5 125t138.5 51t138 -51t59 -125t-59 -125t-138 -51q-80 0 -139 50.5t-59 125.5z" />
    <glyph glyph-name="Eogonek" unicode="&#x118;" 
d="M80 0v1619h1112v-393h-699v-220h537v-393h-537v-220h699v-393h-25q-25 -16 -114 -73q-107 -69 -109 -154q-1 -13 53 -10l125 9l48 -296h-40q-9 -1 -71 -6q-103 -10 -200 17.5t-165 78.5q-93 71 -85 218q5 118 95 216h-624z" />
    <glyph glyph-name="eogonek" unicode="&#x119;" 
d="M80 0v1619h1112v-393h-699v-220h537v-393h-537v-220h699v-393h-25q-25 -16 -114 -73q-107 -69 -109 -154q-1 -13 53 -10l125 9l48 -296h-40q-9 -1 -71 -6q-103 -10 -200 17.5t-165 78.5q-93 71 -85 218q5 118 95 216h-624z" />
    <glyph glyph-name="Ecaron" unicode="&#x11a;" 
d="M638 1642l-362 515h271l92 -128l93 128h271zM80 0v1619h1112v-393h-699v-220h537v-393h-537v-220h699v-393h-1112z" />
    <glyph glyph-name="ecaron" unicode="&#x11b;" 
d="M638 1642l-362 515h271l92 -128l93 128h271zM80 0v1619h1112v-393h-699v-220h537v-393h-537v-220h699v-393h-1112z" />
    <glyph glyph-name="Gbreve" unicode="&#x11e;" horiz-adv-x="1833" 
d="M943 1627l2 -3q183 -5 339 -73t272 -176l25 -25l-295 -280l-26 24q-143 135 -340 135q-200 0 -340 -124q-141 -124 -141 -297q0 -175 141 -299q140 -123 340 -123q86 0 166 27t139.5 71t99.5 101h-461v357h933l3 -31q32 -415 -246 -681q-266 -240 -637 -240
q-375 0 -637 239q-250 238 -250 579q0 336 250 578q263 241 637 241h26zM917 1932q29 0 54.5 14t41 38t15.5 53v35h234v-35q0 -89 -48 -164.5t-127 -118.5t-170 -43q-92 0 -171 43t-126.5 118.5t-47.5 164.5v35h234v-35q0 -29 15 -53.5t40.5 -38t55.5 -13.5z" />
    <glyph glyph-name="gbreve" unicode="&#x11f;" horiz-adv-x="1833" 
d="M943 1627l2 -3q183 -5 339 -73t272 -176l25 -25l-295 -280l-26 24q-143 135 -340 135q-200 0 -340 -124q-141 -124 -141 -297q0 -175 141 -299q140 -123 340 -123q86 0 166 27t139.5 71t99.5 101h-461v357h933l3 -31q32 -415 -246 -681q-266 -240 -637 -240
q-375 0 -637 239q-250 238 -250 579q0 336 250 578q263 241 637 241h26zM917 1932q29 0 54.5 14t41 38t15.5 53v35h234v-35q0 -89 -48 -164.5t-127 -118.5t-170 -43q-92 0 -171 43t-126.5 118.5t-47.5 164.5v35h234v-35q0 -29 15 -53.5t40.5 -38t55.5 -13.5z" />
    <glyph glyph-name="uni0122" unicode="&#x122;" horiz-adv-x="1833" 
 />
    <glyph glyph-name="uni0123" unicode="&#x123;" horiz-adv-x="1833" 
 />
    <glyph glyph-name="Imacron" unicode="&#x12a;" horiz-adv-x="651" 
d="M522 0h-394v1619h394v-1619zM0 1931h651v-232h-651v232z" />
    <glyph glyph-name="imacron" unicode="&#x12b;" horiz-adv-x="651" 
d="M522 0h-394v1619h394v-1619zM0 1931h651v-232h-651v232z" />
    <glyph glyph-name="Iogonek" unicode="&#x12e;" horiz-adv-x="653" 
d="M553 1619v-1603l-138 -89q-107 -69 -109 -154q-1 -13 53 -10l125 9l48 -296h-40q-9 -1 -70 -6q-100 -9 -186.5 17t-149.5 79q-82 70 -76 218q7 164 149 277v1558h394z" />
    <glyph glyph-name="iogonek" unicode="&#x12f;" horiz-adv-x="653" 
d="M553 1619v-1603l-138 -89q-107 -69 -109 -154q-1 -13 53 -10l125 9l48 -296h-40q-9 -1 -70 -6q-100 -9 -186.5 17t-149.5 79q-82 70 -76 218q7 164 149 277v1558h394z" />
    <glyph glyph-name="Idotaccent" unicode="&#x130;" horiz-adv-x="594" 
d="M494 0h-394v1619h394v-1619zM122 1878q0 72 51.5 124t123.5 52t124 -52t52 -124q0 -35 -14 -68t-37.5 -56.5t-56.5 -37.5t-68 -14q-47 0 -87.5 23.5t-64 64.5t-23.5 88z" />
    <glyph glyph-name="dotlessi" unicode="&#x131;" horiz-adv-x="594" 
d="M494 0h-394v1619h394v-1619zM122 1878q0 72 51.5 124t123.5 52t124 -52t52 -124q0 -35 -14 -68t-37.5 -56.5t-56.5 -37.5t-68 -14q-47 0 -87.5 23.5t-64 64.5t-23.5 88z" />
    <glyph glyph-name="uni0136" unicode="&#x136;" horiz-adv-x="1469" 
d="M80 0v1612h393v-618l428 618h455l-513 -817l596 -795h-479l-487 599v-599h-393zM437 -444l23 26q83 81 86 164q4 91 -21 154l-18 46l393 1l7 -27q38 -131 -30 -285q-68 -155 -209 -235l-27 -16z" />
    <glyph glyph-name="uni0137" unicode="&#x137;" horiz-adv-x="1469" 
d="M80 0v1612h393v-618l428 618h455l-513 -817l596 -795h-479l-487 599v-599h-393zM437 -444l23 26q83 81 86 164q4 91 -21 154l-18 46l393 1l7 -27q38 -131 -30 -285q-68 -155 -209 -235l-27 -16z" />
    <glyph glyph-name="Lacute" unicode="&#x139;" 
d="M110 1818l309 423l281 -196l-423 -355zM80 0v1619h413v-1226h699v-393h-1112z" />
    <glyph glyph-name="lacute" unicode="&#x13a;" 
 />
    <glyph glyph-name="uni013B" unicode="&#x13b;" 
d="M80 0v1619h413v-1226h699v-393h-1112zM391 -444l27 26q83 80 86 164q2 91 -21 154l-16 46l377 1l7 -27q37 -131 -29 -285q-66 -155 -201 -235l-27 -16z" />
    <glyph glyph-name="uni013C" unicode="&#x13c;" 
d="M80 0v1619h413v-1226h699v-393h-1112zM391 -444l27 26q83 80 86 164q2 91 -21 154l-16 46l377 1l7 -27q37 -131 -29 -285q-66 -155 -201 -235l-27 -16z" />
    <glyph glyph-name="Lcaron" unicode="&#x13d;" 
d="M80 0v1619h413v-1226h699v-393h-1112zM588 1230l26 25q83 80 86 163q2 91 -20 154l-17 46l366 1l7 -27q33 -132 -26 -286q-58 -154 -193 -234l-27 -16z" />
    <glyph glyph-name="lcaron" unicode="&#x13e;" 
d="M80 0v1619h413v-1226h699v-393h-1112zM588 1230l26 25q83 80 86 163q2 91 -20 154l-17 46l366 1l7 -27q33 -132 -26 -286q-58 -154 -193 -234l-27 -16z" />
    <glyph glyph-name="Lslash" unicode="&#x141;" horiz-adv-x="1356" 
d="M214 856v763h427v-567l430 185v-328l-430 -186v-330h685v-393h-1112v522l-204 -98v333z" />
    <glyph glyph-name="lslash" unicode="&#x142;" horiz-adv-x="1356" 
d="M214 856v763h427v-567l430 185v-328l-430 -186v-330h685v-393h-1112v522l-204 -98v333z" />
    <glyph glyph-name="Nacute" unicode="&#x143;" horiz-adv-x="1636" 
d="M577 1818l323 423l269 -196l-411 -355zM100 1616h85l944 -848v848h407v-1616h-89l-941 846v-846h-406v1616z" />
    <glyph glyph-name="nacute" unicode="&#x144;" horiz-adv-x="1636" 
d="M577 1818l323 423l269 -196l-411 -355zM100 1616h85l944 -848v848h407v-1616h-89l-941 846v-846h-406v1616z" />
    <glyph glyph-name="uni0145" unicode="&#x145;" horiz-adv-x="1636" 
d="M584 -476l25 25q80 80 82 164q3 91 -19 154l-16 46l361 1l7 -27q35 -131 -28 -285.5t-192 -235.5l-26 -16zM100 1616h85l944 -848v848h407v-1616h-89l-941 846v-846h-406v1616z" />
    <glyph glyph-name="uni0146" unicode="&#x146;" horiz-adv-x="1636" 
d="M584 -476l25 25q80 80 82 164q3 91 -19 154l-16 46l361 1l7 -27q35 -131 -28 -285.5t-192 -235.5l-26 -16zM100 1616h85l944 -848v848h407v-1616h-89l-941 846v-846h-406v1616z" />
    <glyph glyph-name="Ncaron" unicode="&#x147;" horiz-adv-x="1636" 
d="M817 1608l-353 515h265l88 -128l88 128h267zM100 1616h85l944 -848v848h407v-1616h-89l-941 846v-846h-406v1616z" />
    <glyph glyph-name="ncaron" unicode="&#x148;" horiz-adv-x="1636" 
d="M817 1608l-353 515h265l88 -128l88 128h267zM100 1616h85l944 -848v848h407v-1616h-89l-941 846v-846h-406v1616z" />
    <glyph glyph-name="Ohungarumlaut" unicode="&#x150;" horiz-adv-x="1778" 
d="M1199 1105q-77 65 -146 94t-165 29q-97 0 -166.5 -29t-144.5 -94q-141 -127 -141 -298q0 -173 141 -297q75 -65 144.5 -94t166.5 -29q65 0 118.5 14t97.5 39.5t95 69.5q141 123 141 297q0 172 -141 298zM280 1383q135 123 280.5 182.5t327.5 59.5q181 0 327 -59.5
t281 -182.5q252 -241 252 -578t-252 -578q-90 -81 -181.5 -133t-197.5 -79t-229 -27q-182 0 -327.5 58.5t-280.5 180.5q-250 241 -250 578q0 336 250 578zM1023 2085l59 131l301 -141l-317 -425l-200 89l112 246l-249 -335l-201 89l217 477z" />
    <glyph glyph-name="ohungarumlaut" unicode="&#x151;" horiz-adv-x="1778" 
d="M1199 1105q-77 65 -146 94t-165 29q-97 0 -166.5 -29t-144.5 -94q-141 -127 -141 -298q0 -173 141 -297q75 -65 144.5 -94t166.5 -29q65 0 118.5 14t97.5 39.5t95 69.5q141 123 141 297q0 172 -141 298zM280 1383q135 123 280.5 182.5t327.5 59.5q181 0 327 -59.5
t281 -182.5q252 -241 252 -578t-252 -578q-90 -81 -181.5 -133t-197.5 -79t-229 -27q-182 0 -327.5 58.5t-280.5 180.5q-250 241 -250 578q0 336 250 578zM1023 2085l59 131l301 -141l-317 -425l-200 89l112 246l-249 -335l-201 89l217 477z" />
    <glyph glyph-name="OE" unicode="&#x152;" horiz-adv-x="2450" 
d="M1348 1500v114l1072 -1v-372h-663v-241h501v-393h-501v-220h663v-392h-1072v117q-205 -123 -462 -123q-180 0 -327.5 59t-277.5 179q-251 238 -251 578q0 337 250 579q132 122 279.5 181.5t326.5 59.5q257 0 462 -125zM1220 1092q-141 135 -334 135q-96 0 -169.5 -32.5
t-144.5 -101.5q-139 -138 -139 -323q0 -188 139 -322q71 -70 144 -102t170 -32q194 0 335 134q98 95 127 219v205q-29 124 -128 220z" />
    <glyph glyph-name="oe" unicode="&#x153;" horiz-adv-x="2450" 
d="M1348 1500v114l1072 -1v-372h-663v-241h501v-393h-501v-220h663v-392h-1072v117q-205 -123 -462 -123q-180 0 -327.5 59t-277.5 179q-251 238 -251 578q0 337 250 579q132 122 279.5 181.5t326.5 59.5q257 0 462 -125zM1220 1092q-141 135 -334 135q-96 0 -169.5 -32.5
t-144.5 -101.5q-139 -138 -139 -323q0 -188 139 -322q71 -70 144 -102t170 -32q194 0 335 134q98 95 127 219v205q-29 124 -128 220z" />
    <glyph glyph-name="Racute" unicode="&#x154;" horiz-adv-x="1463" 
d="M475 0h-394l-1 1621h589q144 0 281 -43q118 -42 207 -127q167 -159 167 -380v-47q0 -165 -109 -312q-16 -21 -30.5 -37.5t-29.5 -31t-32 -26.5t-36 -23t-42 -21l388 -573h-479l-479 626v-626zM431 1818l342 423l275 -196l-429 -355zM474 1228v-386h105l127 -1
q78 0 145 55q63 55 63 144q0 77 -63 134q-31 25 -88.5 39.5t-116.5 14.5h-172z" />
    <glyph glyph-name="racute" unicode="&#x155;" horiz-adv-x="1463" 
d="M475 0h-394l-1 1621h589q144 0 281 -43q118 -42 207 -127q167 -159 167 -380v-47q0 -165 -109 -312q-16 -21 -30.5 -37.5t-29.5 -31t-32 -26.5t-36 -23t-42 -21l388 -573h-479l-479 626v-626zM431 1818l342 423l275 -196l-429 -355zM474 1228v-386h105l127 -1
q78 0 145 55q63 55 63 144q0 77 -63 134q-31 25 -88.5 39.5t-116.5 14.5h-172z" />
    <glyph glyph-name="Rcaron" unicode="&#x158;" horiz-adv-x="1463" 
d="M475 0h-394l-1 1621h589q144 0 281 -43q118 -42 207 -127q167 -159 167 -380v-47q0 -165 -109 -312q-16 -21 -30.5 -37.5t-29.5 -31t-32 -26.5t-36 -23t-42 -21l388 -573h-479l-479 626v-626zM624 1642l-348 515h254l95 -128l97 128h281zM474 1228v-386h105l127 -1
q78 0 145 55q63 55 63 144q0 77 -63 134q-31 25 -88.5 39.5t-116.5 14.5h-172z" />
    <glyph glyph-name="rcaron" unicode="&#x159;" horiz-adv-x="1463" 
d="M475 0h-394l-1 1621h589q144 0 281 -43q118 -42 207 -127q167 -159 167 -380v-47q0 -165 -109 -312q-16 -21 -30.5 -37.5t-29.5 -31t-32 -26.5t-36 -23t-42 -21l388 -573h-479l-479 626v-626zM624 1642l-348 515h254l95 -128l97 128h281zM474 1228v-386h105l127 -1
q78 0 145 55q63 55 63 144q0 77 -63 134q-31 25 -88.5 39.5t-116.5 14.5h-172z" />
    <glyph glyph-name="Scedilla" unicode="&#x15e;" horiz-adv-x="1205" 
d="M605 1227q-36 0 -69.5 -15.5t-55 -43.5t-21.5 -62q0 -35 15 -58.5t47 -39.5q76 -42 94 -47q24 -5 122 -30q219 -53 353 -213q75 -93 75 -234q0 -206 -154 -352q-61 -58 -132 -91q117 -98 124 -250q6 -148 -76 -218q-70 -53 -169 -79.5t-209 -17.5l-123 10l53 292l140 -8
q62 -4 62 10q-5 84 -125 153l-131 77q-107 26 -193.5 94.5t-138.5 170.5t-52 217v34h416v-34q0 -48 37.5 -82t88.5 -40h19q56 0 100.5 36.5t44.5 87.5q0 41 -16.5 63.5t-50.5 33.5q-38 11 -228 69q-215 64 -339 227q-73 95 -73 235q0 207 155 355q155 149 408 149
q249 0 406 -155q155 -154 155 -371v-35h-415v35q0 52 -44 89.5t-100 37.5z" />
    <glyph glyph-name="scedilla" unicode="&#x15f;" horiz-adv-x="1205" 
d="M605 1227q-36 0 -69.5 -15.5t-55 -43.5t-21.5 -62q0 -35 15 -58.5t47 -39.5q76 -42 94 -47q24 -5 122 -30q219 -53 353 -213q75 -93 75 -234q0 -206 -154 -352q-61 -58 -132 -91q117 -98 124 -250q6 -148 -76 -218q-70 -53 -169 -79.5t-209 -17.5l-123 10l53 292l140 -8
q62 -4 62 10q-5 84 -125 153l-131 77q-107 26 -193.5 94.5t-138.5 170.5t-52 217v34h416v-34q0 -48 37.5 -82t88.5 -40h19q56 0 100.5 36.5t44.5 87.5q0 41 -16.5 63.5t-50.5 33.5q-38 11 -228 69q-215 64 -339 227q-73 95 -73 235q0 207 155 355q155 149 408 149
q249 0 406 -155q155 -154 155 -371v-35h-415v35q0 52 -44 89.5t-100 37.5z" />
    <glyph glyph-name="Scaron" unicode="&#x160;" horiz-adv-x="1205" 
d="M442 552v-42q0 -44 44.5 -82t103.5 -46h21q62 0 116.5 39t54.5 85q0 22 -10 40t-29 32t-41 24.5t-53.5 20t-58.5 16t-64 16t-62 16.5q-85 25 -158.5 67.5t-130.5 99.5t-90 131t-33 157q0 102 42.5 193.5t116 158.5t178.5 106t224 39q108 0 205 -35t169 -95t119.5 -143.5
t60.5 -178.5l4 -31l-414 -84q0 79 -34.5 125t-107.5 46q-59 0 -101.5 -36.5t-42.5 -86.5q0 -21 9 -39.5t22 -32t37.5 -27t43 -22t53 -18.5t54 -15.5t56.5 -14.5q5 -1 7 -1.5l6 -1.5t7 -2t6 -1q88 -23 163.5 -62.5t134.5 -95t93 -130t34 -158.5q0 -82 -29.5 -158
t-83.5 -137.5t-126 -107t-160.5 -70.5t-183.5 -25q-145 0 -271 58.5t-207.5 162t-100.5 231.5l-5 31zM602 1643l-363 515h271l92 -128l92 128h272z" />
    <glyph glyph-name="scaron" unicode="&#x161;" horiz-adv-x="1205" 
d="M442 552v-42q0 -44 44.5 -82t103.5 -46h21q62 0 116.5 39t54.5 85q0 22 -10 40t-29 32t-41 24.5t-53.5 20t-58.5 16t-64 16t-62 16.5q-85 25 -158.5 67.5t-130.5 99.5t-90 131t-33 157q0 102 42.5 193.5t116 158.5t178.5 106t224 39q108 0 205 -35t169 -95t119.5 -143.5
t60.5 -178.5l4 -31l-414 -84q0 79 -34.5 125t-107.5 46q-59 0 -101.5 -36.5t-42.5 -86.5q0 -21 9 -39.5t22 -32t37.5 -27t43 -22t53 -18.5t54 -15.5t56.5 -14.5q5 -1 7 -1.5l6 -1.5t7 -2t6 -1q88 -23 163.5 -62.5t134.5 -95t93 -130t34 -158.5q0 -82 -29.5 -158
t-83.5 -137.5t-126 -107t-160.5 -70.5t-183.5 -25q-145 0 -271 58.5t-207.5 162t-100.5 231.5l-5 31zM602 1643l-363 515h271l92 -128l92 128h272z" />
    <glyph glyph-name="uni0162" unicode="&#x162;" horiz-adv-x="1405" 
d="M30 1226v393h1345v-393h-465v-1166q195 -111 205 -276q8 -148 -104 -218q-98 -61 -207 -84q-90 -19 -167 -12l-115 10l51 292l126 -9q54 -3 54 11q-4 84 -111 153l-151 89v1210h-461z" />
    <glyph glyph-name="uni0163" unicode="&#x163;" horiz-adv-x="1335" 
d="M30 1226v393h1275v-393h-422v-1166q157 -111 165 -276q6 -148 -84 -218q-69 -53 -164.5 -79t-204.5 -17l-120 10l51 292l138 -9q59 -3 59 11q-5 84 -121 153l-151 89v1210h-421z" />
    <glyph glyph-name="Tcaron" unicode="&#x164;" horiz-adv-x="1335" 
d="M30 1226v393h1275v-393h-422l16 -1226h-444l-4 1226h-421zM666 1642l-359 515h270l89 -128l91 128h270z" />
    <glyph glyph-name="tcaron" unicode="&#x165;" horiz-adv-x="1335" 
d="M30 1226v393h1275v-393h-422l16 -1226h-444l-4 1226h-421zM666 1642l-359 515h270l89 -128l91 128h270z" />
    <glyph glyph-name="Umacron" unicode="&#x16a;" horiz-adv-x="1604" 
d="M802 386q80 0 152 35.5t117 99t45 138.5v956h408v-969q0 -273 -201 -466q-213 -192 -520 -192q-310 0 -522 192q-201 193 -201 466v969h408v-956q0 -75 44.5 -138.5t116.5 -99t153 -35.5zM450 1918h704v-232h-704v232z" />
    <glyph glyph-name="umacron" unicode="&#x16b;" horiz-adv-x="1604" 
d="M802 386q80 0 152 35.5t117 99t45 138.5v956h408v-969q0 -273 -201 -466q-213 -192 -520 -192q-310 0 -522 192q-201 193 -201 466v969h408v-956q0 -75 44.5 -138.5t116.5 -99t153 -35.5zM450 1918h704v-232h-704v232z" />
    <glyph glyph-name="Uring" unicode="&#x16e;" horiz-adv-x="1604" 
d="M802 386q80 0 152 35.5t117 99t45 138.5v956h408v-969q0 -273 -201 -466q-213 -192 -520 -192q-310 0 -522 192q-201 193 -201 466v969h408v-956q0 -75 44.5 -138.5t116.5 -99t153 -35.5zM849 1840q0 26 -9 34.5t-38 8.5q-20 0 -30 -3.5t-13.5 -12.5t-3.5 -27
q0 -27 9 -35.5t38 -8.5q20 0 30 3.5t13.5 12.5t3.5 28zM560 1841q0 93 72 158t170 65q97 0 169.5 -65t72.5 -158q0 -94 -72 -159t-170 -65t-170 65t-72 159z" />
    <glyph glyph-name="uring" unicode="&#x16f;" horiz-adv-x="1604" 
d="M802 386q80 0 152 35.5t117 99t45 138.5v956h408v-969q0 -273 -201 -466q-213 -192 -520 -192q-310 0 -522 192q-201 193 -201 466v969h408v-956q0 -75 44.5 -138.5t116.5 -99t153 -35.5zM849 1840q0 26 -9 34.5t-38 8.5q-20 0 -30 -3.5t-13.5 -12.5t-3.5 -27
q0 -27 9 -35.5t38 -8.5q20 0 30 3.5t13.5 12.5t3.5 28zM560 1841q0 93 72 158t170 65q97 0 169.5 -65t72.5 -158q0 -94 -72 -159t-170 -65t-170 65t-72 159z" />
    <glyph glyph-name="Uhungarumlaut" unicode="&#x170;" horiz-adv-x="1604" 
d="M932 2146l60 130l306 -141l-321 -425l-206 89l114 245l-254 -334l-204 89l220 477zM802 386q80 0 152 35.5t117 99t45 138.5v956h408v-969q0 -273 -201 -466q-213 -192 -520 -192q-310 0 -522 192q-201 193 -201 466v969h408v-956q0 -75 44.5 -138.5t116.5 -99t153 -35.5
z" />
    <glyph glyph-name="uhungarumlaut" unicode="&#x171;" horiz-adv-x="1604" 
d="M932 2146l60 130l306 -141l-321 -425l-206 89l114 245l-254 -334l-204 89l220 477zM802 386q80 0 152 35.5t117 99t45 138.5v956h408v-969q0 -273 -201 -466q-213 -192 -520 -192q-310 0 -522 192q-201 193 -201 466v969h408v-956q0 -75 44.5 -138.5t116.5 -99t153 -35.5
z" />
    <glyph glyph-name="Uogonek" unicode="&#x172;" horiz-adv-x="1604" 
d="M1323 176q-82 -78 -169 -120q-60 -35 -133 -89q-70 -54 -72 -114q-1 -13 59 -10l138 9l48 -296h-40q-1 0 -8 -0.5t-15 -1.5t-22.5 -2t-30.5 -2q-74 -6 -144.5 4.5t-128.5 34t-104.5 59t-68.5 96.5t-16.5 128.5t35.5 124.5q-218 34 -370 180q-201 193 -201 466v969h396
v-1010q0 -118 96 -204q96 -85 230 -85q132 0 229 85q97 86 97 204v1010h396v-970q0 -273 -201 -466z" />
    <glyph glyph-name="uogonek" unicode="&#x173;" horiz-adv-x="1604" 
d="M1323 176q-82 -78 -169 -120q-60 -35 -133 -89q-70 -54 -72 -114q-1 -13 59 -10l138 9l48 -296h-40q-1 0 -8 -0.5t-15 -1.5t-22.5 -2t-30.5 -2q-74 -6 -144.5 4.5t-128.5 34t-104.5 59t-68.5 96.5t-16.5 128.5t35.5 124.5q-218 34 -370 180q-201 193 -201 466v969h396
v-1010q0 -118 96 -204q96 -85 230 -85q132 0 229 85q97 86 97 204v1010h396v-970q0 -273 -201 -466z" />
    <glyph glyph-name="Zacute" unicode="&#x179;" horiz-adv-x="1375" 
d="M50 1223v393h1295l-655 -1242h634v-376h-1294l655 1225h-635zM412 1818l328 423l272 -196l-417 -355z" />
    <glyph glyph-name="zacute" unicode="&#x17a;" horiz-adv-x="1375" 
d="M50 1223v393h1295l-655 -1242h634v-376h-1294l655 1225h-635zM412 1818l328 423l272 -196l-417 -355z" />
    <glyph glyph-name="Zdotaccent" unicode="&#x17b;" horiz-adv-x="1375" 
d="M50 1223v393h1295l-655 -1242h634v-376h-1294l655 1225h-635zM495 1878q0 49 27 89.5t71 63.5t94 23q77 0 135 -51.5t58 -124.5q0 -74 -57.5 -125t-135.5 -51q-77 0 -134.5 51t-57.5 125z" />
    <glyph glyph-name="zdotaccent" unicode="&#x17c;" horiz-adv-x="1375" 
d="M50 1223v393h1295l-655 -1242h634v-376h-1294l655 1225h-635zM495 1878q0 49 27 89.5t71 63.5t94 23q77 0 135 -51.5t58 -124.5q0 -74 -57.5 -125t-135.5 -51q-77 0 -134.5 51t-57.5 125z" />
    <glyph glyph-name="Zcaron" unicode="&#x17d;" horiz-adv-x="1375" 
d="M686 1642l-357 515h268l89 -128l90 128h270zM50 1223v393h1295l-655 -1242h634v-376h-1294l655 1225h-635z" />
    <glyph glyph-name="zcaron" unicode="&#x17e;" horiz-adv-x="1375" 
d="M686 1642l-357 515h268l89 -128l90 128h270zM50 1223v393h1295l-655 -1242h634v-376h-1294l655 1225h-635z" />
    <glyph glyph-name="uni018F" unicode="&#x18f;" horiz-adv-x="1835" 
d="M1350 1003q-62 101 -178.5 162.5t-255.5 61.5q-149 0 -267 -77l-31 -20l-227 332l31 19q100 61 220.5 99t248.5 42l1 3h27q372 0 637 -241q249 -243 249 -579q0 -339 -249 -578q-264 -239 -637 -239q-374 0 -637 241q-252 240 -252 583q0 88 17 164l6 27h1297zM483 641
q56 -111 172 -184t261 -73q199 0 340 134q59 56 94 123h-867z" />
    <glyph glyph-name="uni01DD" unicode="&#x1dd;" horiz-adv-x="1835" 
d="M1350 1003q-62 101 -178.5 162.5t-255.5 61.5q-149 0 -267 -77l-31 -20l-227 332l31 19q100 61 220.5 99t248.5 42l1 3h27q372 0 637 -241q249 -243 249 -579q0 -339 -249 -578q-264 -239 -637 -239q-374 0 -637 241q-252 240 -252 583q0 88 17 164l6 27h1297zM483 641
q56 -111 172 -184t261 -73q199 0 340 134q59 56 94 123h-867z" />
    <glyph glyph-name="uni021A" unicode="&#x21a;" horiz-adv-x="1335" 
d="M30 1226v393h1275v-393h-422l16 -1226h-444l-4 1226h-421zM468 -444l33 26q75 79 78 164q2 91 -18 154l-15 46l334 1l7 -27q36 -122 -26 -285q-58 -155 -179 -235l-23 -16z" />
    <glyph glyph-name="uni021B" unicode="&#x21b;" horiz-adv-x="1335" 
d="M30 1226v393h1275v-393h-422l16 -1226h-444l-4 1226h-421zM468 -444l33 26q75 79 78 164q2 91 -18 154l-15 46l334 1l7 -27q36 -122 -26 -285q-58 -155 -179 -235l-23 -16z" />
    <glyph glyph-name="uni2010" unicode="&#x2010;" horiz-adv-x="930" 
d="M35 509v353h860v-353h-860z" />
    <glyph glyph-name="uni2011" unicode="&#x2011;" horiz-adv-x="930" 
d="M35 509v353h860v-353h-860z" />
    <glyph glyph-name="figuredash" unicode="&#x2012;" horiz-adv-x="1030" 
d="M35 509v353h960v-353h-960z" />
    <glyph glyph-name="endash" unicode="&#x2013;" horiz-adv-x="1030" 
d="M35 509v353h960v-353h-960z" />
    <glyph glyph-name="emdash" unicode="&#x2014;" horiz-adv-x="1600" 
d="M35 509v353h1530v-353h-1530z" />
    <glyph glyph-name="uni2015" unicode="&#x2015;" horiz-adv-x="1800" 
d="M35 509v353h1730v-353h-1730z" />
    <glyph glyph-name="quoteleft" unicode="&#x2018;" horiz-adv-x="633" 
d="M593 1336q0 -91 -56 -165t-138 -99l-18 -8l-62 -4q-72 -5 -137 34t-103.5 106t-38.5 140q0 106 34 185.5t97 150.5q65 73 168 104q42 12 110 0q5 -1 16.5 -3t16 -3l13.5 -3t14 -4.5t11.5 -6t11.5 -8.5t10 -11q11 -16 10.5 -32t-7 -27.5t-22 -24t-25.5 -18t-26 -14.5
q-4 -1 -5 -2q-40 -22 -40 -50q72 -30 119 -91.5t47 -145.5zM151 1688z" />
    <glyph glyph-name="quoteright" unicode="&#x2019;" horiz-adv-x="633" 
d="M40 1504q0 91 56 164.5t137 98.5l19 8l62 5q72 5 137 -34t103.5 -106t38.5 -141q0 -106 -34 -185.5t-97 -150.5q-65 -72 -168 -103q-42 -13 -111 0q-4 1 -15.5 3t-16 3l-13.5 3t-14 4.5l-12 6t-12 8t-9 11.5q-11 16 -10.5 32t7 27t22 23.5t25.5 18t26 14.5q3 2 5 3
q40 21 40 49q-72 30 -119 92t-47 146zM482 1151z" />
    <glyph glyph-name="quotesinglbase" unicode="&#x201a;" horiz-adv-x="633" 
d="M40 154q0 78 37 138.5t97.5 94t139.5 43.5q72 5 137 -34t103.5 -106t38.5 -141q0 -106 -34 -185.5t-97 -150.5q-65 -72 -168 -103q-42 -13 -111 0q-4 1 -15.5 3t-16 3l-13.5 3t-14 4.5l-12 6t-12 8t-9 11.5q-11 16 -10.5 32t7 27t22 23.5t25.5 18t26 14.5q3 2 5 3
q40 21 40 49q-72 30 -119 92t-47 146z" />
    <glyph glyph-name="quotereversed" unicode="&#x201b;" horiz-adv-x="633" 
d="M593 1504q0 91 -56 164.5t-138 98.5l-18 8l-62 5q-72 5 -137 -34t-103.5 -106t-38.5 -141q0 -106 34 -185.5t97 -150.5q65 -72 168 -103q42 -13 110 0q5 1 16.5 3t16 3l13.5 3t14 4.5t11.5 6t11.5 8t10 11.5q11 16 10.5 32t-7 27t-22 23.5t-25.5 18t-26 14.5q-4 2 -5 3
q-40 21 -40 49q72 30 119 92t47 146zM151 1151z" />
    <glyph glyph-name="quotedblleft" unicode="&#x201c;" horiz-adv-x="1253" 
d="M1213 1336q0 -91 -56 -165t-138 -99l-18 -8l-62 -4q-72 -5 -137 34t-103.5 106t-38.5 140q0 106 34 185.5t97 150.5q65 73 168 104q42 12 110 0q5 -1 16.5 -3t16 -3l13.5 -3t14 -4.5t11.5 -6t11.5 -8.5t10 -11q11 -16 10.5 -32t-7 -27.5t-22 -24t-25.5 -18t-26 -14.5
q-4 -1 -5 -2q-40 -22 -40 -50q72 -30 119 -91.5t47 -145.5zM593 1336q0 -91 -56 -165t-138 -99l-18 -8l-62 -4q-72 -5 -137 34t-103.5 106t-38.5 140q0 106 34 185.5t97 150.5q65 73 168 104q42 12 110 0q5 -1 16.5 -3t16 -3l13.5 -3t14 -4.5t11.5 -6t11.5 -8.5t10 -11
q11 -16 10.5 -32t-7 -27.5t-22 -24t-25.5 -18t-26 -14.5q-4 -1 -5 -2q-40 -22 -40 -50q72 -30 119 -91.5t47 -145.5zM151 1688z" />
    <glyph glyph-name="quotedblright" unicode="&#x201d;" horiz-adv-x="1253" 
d="M660 1504q0 91 56 164.5t137 98.5l19 8l62 5q72 5 137 -34t103.5 -106t38.5 -141q0 -106 -34 -185.5t-97 -150.5q-65 -72 -168 -103q-42 -13 -111 0q-4 1 -15.5 3t-16 3l-13.5 3t-14 4.5l-12 6t-12 8t-9 11.5q-39 57 70 115q3 2 5 3q40 21 40 49q-72 30 -119 92t-47 146z
M40 1504q0 91 56 164.5t137 98.5l19 8l62 5q72 5 137 -34t103.5 -106t38.5 -141q0 -106 -34 -185.5t-97 -150.5q-65 -72 -168 -103q-42 -13 -111 0q-4 1 -15.5 3t-16 3l-13.5 3t-14 4.5l-12 6t-12 8t-9 11.5q-11 16 -10.5 32t7 27t22 23.5t25.5 18t26 14.5q3 2 5 3
q40 21 40 49q-72 30 -119 92t-47 146zM482 1151z" />
    <glyph glyph-name="quotedblbase" unicode="&#x201e;" horiz-adv-x="1253" 
d="M660 154q0 78 37 138.5t97.5 94t139.5 43.5q72 5 137 -34t103.5 -106t38.5 -141q0 -106 -34 -185.5t-97 -150.5q-65 -72 -168 -103q-42 -13 -111 0q-4 1 -15.5 3t-16 3l-13.5 3t-14 4.5l-12 6t-12 8t-9 11.5q-39 57 70 115q3 2 5 3q40 21 40 49q-72 30 -119 92t-47 146z
M40 154q0 78 37 138.5t97.5 94t139.5 43.5q72 5 137 -34t103.5 -106t38.5 -141q0 -106 -34 -185.5t-97 -150.5q-65 -72 -168 -103q-42 -13 -111 0q-4 1 -15.5 3t-16 3l-13.5 3t-14 4.5l-12 6t-12 8t-9 11.5q-11 16 -10.5 32t7 27t22 23.5t25.5 18t26 14.5q3 2 5 3
q40 21 40 49q-72 30 -119 92t-47 146z" />
    <glyph glyph-name="uni201F" unicode="&#x201f;" horiz-adv-x="1253" 
d="M593 1504q0 91 -56 164.5t-138 98.5l-18 8l-62 5q-72 5 -137 -34t-103.5 -106t-38.5 -141q0 -106 34 -185.5t97 -150.5q65 -72 168 -103q42 -13 110 0q5 1 16.5 3t16 3l13.5 3t14 4.5t11.5 6t11.5 8t10 11.5q11 16 10.5 32t-7 27t-22 23.5t-25.5 18t-26 14.5q-4 2 -5 3
q-40 21 -40 49q72 30 119 92t47 146zM1213 1504q0 91 -56 164.5t-138 98.5l-18 8l-62 5q-54 4 -106 -18.5t-89.5 -62t-60.5 -92.5t-23 -108q0 -106 34 -185.5t97 -150.5q65 -72 168 -103q42 -13 110 0q5 1 16.5 3t16 3l13.5 3t14 4.5t11.5 6t11.5 8t10 11.5q11 16 10.5 32
t-7 27t-22 23.5t-25.5 18t-26 14.5q-4 2 -5 3q-40 21 -40 49q72 30 119 92t47 146zM771 1151z" />
    <glyph glyph-name="perthousand" unicode="&#x2030;" horiz-adv-x="2447" 
d="M69 1289q0 96 49 178.5t131.5 131t177.5 48.5t178 -49t132 -131.5t49 -177.5t-48.5 -178t-131.5 -132t-178 -49q-72 0 -138.5 28.5t-115 77t-77 114.5t-28.5 139zM1153 496q-73 0 -104 -31t-31 -103t31 -103t104 -31q72 0 103 31t31 103t-31 103t-103 31zM756 362
q0 80 32 153.5t85.5 127t127 85.5t152.5 32q106 0 198 -54t146 -146t54 -198t-53.5 -197.5t-145.5 -145.5t-198 -54q-80 0 -154 31.5t-127 85t-85 127t-32 153.5zM1104 1648h322l-1062 -1683h-324zM2009 497q-73 0 -104 -31t-31 -104q0 -72 31 -103t104 -31q72 0 103 31
t31 103q0 73 -31 104t-103 31zM1612 362q0 107 54 199t145.5 145.5t198.5 53.5q106 0 197.5 -54t145.5 -146t54 -198t-53.5 -197.5t-145.5 -145.5t-198 -54q-80 0 -154 31.5t-127 85t-85 127t-32 153.5zM428 1378q-29 -1 -60 -26q-27 -21 -26.5 -62.5t25.5 -63.5
q27 -23 61 -23q26 0 47 16.5t30.5 39.5t5 49t-25.5 44q-30 25 -57 26z" />
    <glyph glyph-name="uni203F" unicode="&#x203f;" horiz-adv-x="2002" 
d="M1546 1205q23 52 76 89t114 37q74 0 124 -52v189h-1717v-365l38 305l229 -376l328 383l-61 -498l269 472l167 -512q4 29 32 247l25 204h192q26 0 50.5 -5.5t45.5 -16t38.5 -25.5t30 -34.5t19.5 -41.5zM40 1571h1922v-1530h-1922v1530zM1755 1113q68 -26 105 -79v79h-105z
M1732 1120l1 30q0 9 -2 11.5t-8 2.5q-10 0 -18 -11.5t0 -17.5q11 -8 27 -15zM1682 963l-5 -25q-1 -10 10 -10q8 0 15 8t7 17q-14 5 -27 10zM1311 1089h32q18 0 32 23.5t0 39.5q-8 8 -32 8h-24q-5 -41 -8 -71zM248 764l210 -228l44 356l-123 -145l-91 152l-16 -135h-24z
M1543 1072q-13 -37 -39 -68.5t-60 -50.5l100 -190h-22l-350 -620h688v734q-15 -31 -43.5 -57.5t-66 -43t-75.5 -16.5q-76 0 -127 55.5t-41 132.5l4 31h138q-75 28 -106 93zM966 769q-6 17 -24 71h-122l-41 -71h187zM1012 628l-3 -28h-198l-4 -31h148l-20 -169h-149l-4 -30
h199l-20 -169h-369l69 563h-3q-15 -120 -42 -340.5t-35 -277.5l-262 284l-28 -231h-148v-56h1024zM1342 767l-59 111l-14 -115h-120q13 -42 37 -119t30 -95l120 218h6zM143 383l47 381h-47v-381z" />
    <glyph glyph-name="Euro" unicode="&#x20ac;" horiz-adv-x="1746" 
d="M1385 509l281 -282l-25 -25q-73 -72 -159.5 -125.5t-202.5 -88t-242 -34.5q-354 1 -602 248q-160 159 -219 364h-136l24 212h80v28q0 31 1 41h-105l24 212h116q60 195 215 350q249 251 602 251h45l-1 -5q167 -8 308.5 -75.5t250.5 -172.5l25 -25l-280 -280l-25 24
q-137 134 -322 134q-190 0 -322 -134q-32 -32 -56 -67h683l-24 -212h-736q-1 -11 -1 -42q0 -23 1 -27h733l-24 -212h-643q28 -45 67 -83q132 -134 322 -134q188 0 323 135z" />
    <glyph glyph-name="glyph1" horiz-adv-x="0" 
 />
    <glyph glyph-name="glyph2" horiz-adv-x="2048" 
 />
    <glyph glyph-name="glyph107" horiz-adv-x="1544" 
d="M483 210l-110 -245h-427l789 1766l790 -1766h-428l-109 245h-505zM1061 1966v-232h-652v232h652zM539 496l197 460l195 -460h-392z" />
    <glyph glyph-name="glyph108" horiz-adv-x="1544" 
d="M539 496l197 460l195 -460h-392zM735 1967q43 0 74.5 31t31.5 74v35h220v-35q0 -88 -44 -163t-119 -119t-163 -44t-162.5 44t-118.5 119t-44 163v35h220v-35q0 -17 5.5 -33t15 -29t22.5 -22.5t29 -15t33 -5.5zM483 210l-110 -245h-427l789 1766l790 -1766h-428l-109 245
h-505z" />
    </font>
</defs>
</svg>
